<svg width="369" height="572" viewBox="0 0 369 572" fill="none" xmlns="http://www.w3.org/2000/svg">
<g filter="url(#filter0_d_59_113)">
<rect x="4" width="361" height="564" rx="30" fill="#F9F6F5" shape-rendering="crispEdges"/>
<g filter="url(#filter1_d_59_113)">
<rect x="28" y="27" width="312" height="322" rx="30" fill="#DCD2C9" fill-opacity="0.4" shape-rendering="crispEdges"/>
</g>
<path d="M30.576 387V368.016H32.956V384.984H41.272V387H30.576ZM51.3513 387.336C50.0633 387.336 48.906 387.084 47.8793 386.58C46.8527 386.057 46.0407 385.208 45.4433 384.032C44.846 382.837 44.5473 381.223 44.5473 379.188V368.016H46.8993V379.244C46.8993 380.775 47.0953 381.979 47.4873 382.856C47.898 383.733 48.43 384.359 49.0833 384.732C49.7553 385.087 50.5113 385.264 51.3513 385.264C52.1913 385.264 52.9473 385.087 53.6193 384.732C54.31 384.359 54.8513 383.733 55.2433 382.856C55.654 381.979 55.8593 380.775 55.8593 379.244V368.016H58.1553V379.188C58.1553 381.223 57.8567 382.837 57.2593 384.032C56.662 385.208 55.8407 386.057 54.7953 386.58C53.7687 387.084 52.6207 387.336 51.3513 387.336ZM63.2518 387V368.016H66.1638L69.7758 378.18C70.0184 378.833 70.2518 379.496 70.4758 380.168C70.6998 380.84 70.9238 381.512 71.1478 382.184H71.2598C71.4838 381.512 71.6984 380.84 71.9038 380.168C72.1278 379.496 72.3518 378.833 72.5758 378.18L76.1878 368.016H79.0718V387H76.8598V376.5C76.8598 375.679 76.8878 374.745 76.9438 373.7C77.0184 372.655 77.0838 371.712 77.1398 370.872H77.0278L75.5438 375.212L71.9318 385.096H70.3638L66.7518 375.212L65.2398 370.872H65.1278C65.1838 371.712 65.2491 372.655 65.3238 373.7C65.3984 374.745 65.4358 375.679 65.4358 376.5V387H63.2518ZM84.2518 387V368.016H86.6318V387H84.2518ZM91.8533 387V368.016H94.3453L101.233 380L103.277 383.948H103.389C103.333 382.977 103.268 381.979 103.193 380.952C103.119 379.907 103.081 378.889 103.081 377.9V368.016H105.377V387H102.885L95.9973 375.016L93.9533 371.096H93.8133C93.8693 372.067 93.9347 373.047 94.0093 374.036C94.084 375.025 94.1213 376.015 94.1213 377.004V387H91.8533ZM121.029 387L119.209 381.204H112.321L110.445 387H108.009L114.449 368.016H117.137L123.577 387H121.029ZM112.825 379.3H118.677L117.725 376.388C117.37 375.324 117.034 374.269 116.717 373.224C116.418 372.16 116.12 371.087 115.821 370.004H115.709C115.41 371.087 115.102 372.16 114.785 373.224C114.468 374.269 114.141 375.324 113.805 376.388L112.825 379.3ZM141.072 387.336C139.504 387.336 138.104 386.935 136.872 386.132C135.659 385.329 134.707 384.191 134.016 382.716C133.325 381.241 132.98 379.487 132.98 377.452C132.98 375.436 133.325 373.7 134.016 372.244C134.707 370.769 135.659 369.64 136.872 368.856C138.104 368.072 139.504 367.68 141.072 367.68C142.677 367.68 144.087 368.072 145.3 368.856C146.513 369.64 147.465 370.769 148.156 372.244C148.847 373.7 149.192 375.436 149.192 377.452C149.192 379.487 148.847 381.241 148.156 382.716C147.465 384.191 146.513 385.329 145.3 386.132C144.087 386.935 142.677 387.336 141.072 387.336ZM141.072 385.264C142.211 385.264 143.2 384.947 144.04 384.312C144.899 383.659 145.561 382.753 146.028 381.596C146.495 380.42 146.728 379.039 146.728 377.452C146.728 375.884 146.495 374.531 146.028 373.392C145.561 372.235 144.899 371.348 144.04 370.732C143.2 370.097 142.211 369.78 141.072 369.78C139.952 369.78 138.963 370.097 138.104 370.732C137.264 371.348 136.611 372.235 136.144 373.392C135.677 374.531 135.444 375.884 135.444 377.452C135.444 379.039 135.677 380.42 136.144 381.596C136.611 382.753 137.264 383.659 138.104 384.312C138.963 384.947 139.952 385.264 141.072 385.264ZM153.043 387V372.972H155.003L155.199 374.988H155.283C155.955 374.316 156.665 373.756 157.411 373.308C158.177 372.841 159.035 372.608 159.987 372.608C161.481 372.608 162.563 373.075 163.235 374.008C163.926 374.941 164.271 376.304 164.271 378.096V387H161.947V378.404C161.947 377.097 161.733 376.145 161.303 375.548C160.893 374.951 160.211 374.652 159.259 374.652C158.55 374.652 157.906 374.839 157.327 375.212C156.749 375.567 156.114 376.108 155.423 376.836V387H153.043ZM174.532 387.336C173.281 387.336 172.143 387.047 171.116 386.468C170.108 385.889 169.305 385.049 168.708 383.948C168.111 382.847 167.812 381.531 167.812 380C167.812 378.469 168.111 377.153 168.708 376.052C169.324 374.951 170.108 374.101 171.06 373.504C172.031 372.907 173.048 372.608 174.112 372.608C175.904 372.608 177.285 373.205 178.256 374.4C179.245 375.595 179.74 377.2 179.74 379.216C179.74 379.459 179.731 379.701 179.712 379.944C179.693 380.168 179.665 380.364 179.628 380.532H170.136C170.229 382.025 170.696 383.229 171.536 384.144C172.376 385.04 173.468 385.488 174.812 385.488C175.503 385.488 176.128 385.385 176.688 385.18C177.267 384.975 177.817 384.704 178.34 384.368L179.18 385.908C178.564 386.3 177.873 386.636 177.108 386.916C176.361 387.196 175.503 387.336 174.532 387.336ZM170.108 378.852H177.64C177.64 377.433 177.332 376.351 176.716 375.604C176.119 374.857 175.269 374.484 174.168 374.484C173.179 374.484 172.292 374.867 171.508 375.632C170.724 376.397 170.257 377.471 170.108 378.852Z" fill="#272320"/>
<path d="M29.288 421V411.508H31.668C33.124 411.508 34.2347 411.919 35 412.74C35.7653 413.561 36.148 414.723 36.148 416.226C36.148 417.729 35.7653 418.9 35 419.74C34.244 420.58 33.152 421 31.724 421H29.288ZM30.478 420.034H31.57C32.69 420.034 33.5253 419.698 34.076 419.026C34.636 418.354 34.916 417.421 34.916 416.226C34.916 415.031 34.636 414.112 34.076 413.468C33.5253 412.815 32.69 412.488 31.57 412.488H30.478V420.034ZM40.1207 421.168C39.3834 421.168 38.8421 420.939 38.4967 420.482C38.1514 420.015 37.9787 419.334 37.9787 418.438V413.986H39.1547V418.284C39.1547 418.937 39.2574 419.413 39.4627 419.712C39.6774 420.011 40.0181 420.16 40.4847 420.16C40.8487 420.16 41.1707 420.067 41.4507 419.88C41.7307 419.684 42.0387 419.381 42.3747 418.97V413.986H43.5507V421H42.5847L42.4867 419.908H42.4447C42.1181 420.291 41.7681 420.599 41.3947 420.832C41.0307 421.056 40.6061 421.168 40.1207 421.168ZM47.7584 421.168C47.2544 421.168 46.7737 421.079 46.3164 420.902C45.859 420.715 45.4624 420.487 45.1264 420.216L45.7144 419.432C46.0224 419.675 46.3397 419.875 46.6664 420.034C46.993 420.193 47.371 420.272 47.8004 420.272C48.2577 420.272 48.603 420.165 48.8364 419.95C49.0697 419.726 49.1864 419.465 49.1864 419.166C49.1864 418.923 49.107 418.723 48.9484 418.564C48.7897 418.396 48.5844 418.256 48.3324 418.144C48.0804 418.023 47.8284 417.915 47.5764 417.822C47.2497 417.701 46.923 417.561 46.5964 417.402C46.2697 417.234 45.999 417.024 45.7844 416.772C45.579 416.52 45.4764 416.198 45.4764 415.806C45.4764 415.237 45.6864 414.761 46.1064 414.378C46.5357 413.995 47.133 413.804 47.8984 413.804C48.337 413.804 48.743 413.883 49.1164 414.042C49.4897 414.191 49.807 414.378 50.0684 414.602L49.5084 415.344C49.2657 415.167 49.0137 415.022 48.7524 414.91C48.5004 414.789 48.2204 414.728 47.9124 414.728C47.4644 414.728 47.133 414.831 46.9184 415.036C46.713 415.232 46.6104 415.465 46.6104 415.736C46.6104 415.96 46.685 416.147 46.8344 416.296C46.9837 416.436 47.175 416.557 47.4084 416.66C47.651 416.763 47.9077 416.861 48.1784 416.954C48.5144 417.085 48.8457 417.229 49.1724 417.388C49.499 417.547 49.7697 417.761 49.9844 418.032C50.199 418.293 50.3064 418.648 50.3064 419.096C50.3064 419.665 50.087 420.155 49.6484 420.566C49.219 420.967 48.589 421.168 47.7584 421.168ZM54.1653 421.168C53.4187 421.168 52.896 420.958 52.5973 420.538C52.308 420.109 52.1633 419.544 52.1633 418.844V414.938H51.1133V414.042L52.2193 413.986L52.3593 412.012H53.3393V413.986H55.2433V414.938H53.3393V418.858C53.3393 419.287 53.4187 419.623 53.5773 419.866C53.7453 420.099 54.03 420.216 54.4313 420.216C54.562 420.216 54.6973 420.197 54.8373 420.16C54.9867 420.123 55.122 420.081 55.2433 420.034L55.4533 420.916C55.2573 420.981 55.0473 421.037 54.8233 421.084C54.5993 421.14 54.38 421.168 54.1653 421.168ZM56.9325 424.024C56.6245 424.024 56.3539 423.977 56.1205 423.884L56.3445 422.946C56.4099 422.974 56.4939 422.997 56.5965 423.016C56.6992 423.044 56.7925 423.058 56.8765 423.058C57.2779 423.058 57.6045 422.913 57.8565 422.624C58.1179 422.335 58.3232 421.971 58.4725 421.532L58.6265 421.014L55.8125 413.986H57.0165L58.4725 417.878C58.5845 418.186 58.6965 418.513 58.8085 418.858C58.9299 419.203 59.0465 419.539 59.1585 419.866H59.2145C59.3172 419.549 59.4152 419.217 59.5085 418.872C59.6019 418.527 59.6999 418.195 59.8025 417.878L61.0625 413.986H62.2105L59.5645 421.574C59.3965 422.041 59.1959 422.456 58.9625 422.82C58.7385 423.193 58.4585 423.487 58.1225 423.702C57.7959 423.917 57.3992 424.024 56.9325 424.024ZM67.5966 421V411.508H70.5786C71.2226 411.508 71.7919 411.597 72.2866 411.774C72.7906 411.942 73.1826 412.222 73.4626 412.614C73.7519 412.997 73.8966 413.519 73.8966 414.182C73.8966 414.817 73.7519 415.339 73.4626 415.75C73.1826 416.161 72.7906 416.469 72.2866 416.674C71.7919 416.879 71.2226 416.982 70.5786 416.982H68.7866V421H67.5966ZM68.7866 416.016H70.3966C71.1339 416.016 71.6986 415.867 72.0906 415.568C72.4919 415.26 72.6926 414.798 72.6926 414.182C72.6926 413.547 72.4919 413.104 72.0906 412.852C71.6986 412.6 71.1339 412.474 70.3966 412.474H68.7866V416.016ZM72.8186 421L70.3266 416.66L71.2786 416.044L74.1626 421H72.8186ZM78.4314 421.168C77.8621 421.168 77.3301 421.023 76.8354 420.734C76.3407 420.445 75.9394 420.029 75.6314 419.488C75.3327 418.937 75.1834 418.275 75.1834 417.5C75.1834 416.716 75.3327 416.049 75.6314 415.498C75.9394 414.947 76.3407 414.527 76.8354 414.238C77.3301 413.949 77.8621 413.804 78.4314 413.804C79.0101 413.804 79.5467 413.949 80.0414 414.238C80.5361 414.527 80.9327 414.947 81.2314 415.498C81.5394 416.049 81.6934 416.716 81.6934 417.5C81.6934 418.275 81.5394 418.937 81.2314 419.488C80.9327 420.029 80.5361 420.445 80.0414 420.734C79.5467 421.023 79.0101 421.168 78.4314 421.168ZM78.4314 420.202C79.0474 420.202 79.5421 419.955 79.9154 419.46C80.2887 418.965 80.4754 418.312 80.4754 417.5C80.4754 416.688 80.2887 416.035 79.9154 415.54C79.5421 415.036 79.0474 414.784 78.4314 414.784C77.8247 414.784 77.3347 415.036 76.9614 415.54C76.5881 416.035 76.4014 416.688 76.4014 417.5C76.4014 418.312 76.5881 418.965 76.9614 419.46C77.3347 419.955 77.8247 420.202 78.4314 420.202ZM85.3834 421.168C84.8794 421.168 84.3987 421.079 83.9414 420.902C83.484 420.715 83.0874 420.487 82.7514 420.216L83.3394 419.432C83.6474 419.675 83.9647 419.875 84.2914 420.034C84.618 420.193 84.996 420.272 85.4254 420.272C85.8827 420.272 86.228 420.165 86.4614 419.95C86.6947 419.726 86.8114 419.465 86.8114 419.166C86.8114 418.923 86.732 418.723 86.5734 418.564C86.4147 418.396 86.2094 418.256 85.9574 418.144C85.7054 418.023 85.4534 417.915 85.2014 417.822C84.8747 417.701 84.548 417.561 84.2214 417.402C83.8947 417.234 83.624 417.024 83.4094 416.772C83.204 416.52 83.1014 416.198 83.1014 415.806C83.1014 415.237 83.3114 414.761 83.7314 414.378C84.1607 413.995 84.758 413.804 85.5234 413.804C85.962 413.804 86.368 413.883 86.7414 414.042C87.1147 414.191 87.432 414.378 87.6934 414.602L87.1334 415.344C86.8907 415.167 86.6387 415.022 86.3774 414.91C86.1254 414.789 85.8454 414.728 85.5374 414.728C85.0894 414.728 84.758 414.831 84.5434 415.036C84.338 415.232 84.2354 415.465 84.2354 415.736C84.2354 415.96 84.31 416.147 84.4594 416.296C84.6087 416.436 84.8 416.557 85.0334 416.66C85.276 416.763 85.5327 416.861 85.8034 416.954C86.1394 417.085 86.4707 417.229 86.7974 417.388C87.124 417.547 87.3947 417.761 87.6094 418.032C87.824 418.293 87.9314 418.648 87.9314 419.096C87.9314 419.665 87.712 420.155 87.2734 420.566C86.844 420.967 86.214 421.168 85.3834 421.168ZM92.4203 421.168C91.795 421.168 91.2257 421.023 90.7123 420.734C90.2083 420.445 89.807 420.025 89.5083 419.474C89.2097 418.923 89.0603 418.265 89.0603 417.5C89.0603 416.735 89.2097 416.077 89.5083 415.526C89.8163 414.975 90.2083 414.551 90.6843 414.252C91.1697 413.953 91.6783 413.804 92.2103 413.804C93.1063 413.804 93.797 414.103 94.2823 414.7C94.777 415.297 95.0243 416.1 95.0243 417.108C95.0243 417.229 95.0197 417.351 95.0103 417.472C95.001 417.584 94.987 417.682 94.9683 417.766H90.2223C90.269 418.513 90.5023 419.115 90.9223 419.572C91.3423 420.02 91.8883 420.244 92.5603 420.244C92.9057 420.244 93.2183 420.193 93.4983 420.09C93.7877 419.987 94.063 419.852 94.3243 419.684L94.7443 420.454C94.4363 420.65 94.091 420.818 93.7083 420.958C93.335 421.098 92.9057 421.168 92.4203 421.168ZM90.2083 416.926H93.9743C93.9743 416.217 93.8203 415.675 93.5123 415.302C93.2137 414.929 92.789 414.742 92.2383 414.742C91.7437 414.742 91.3003 414.933 90.9083 415.316C90.5163 415.699 90.283 416.235 90.2083 416.926Z" fill="black"/>
<path d="M30.016 459V442.8H34.384C36.864 442.8 38.808 443.464 40.216 444.792C41.64 446.12 42.352 448.144 42.352 450.864C42.352 453.568 41.648 455.6 40.24 456.96C38.848 458.32 36.952 459 34.552 459H30.016ZM33.088 456.528H34.192C35.76 456.528 36.984 456.08 37.864 455.184C38.76 454.272 39.208 452.832 39.208 450.864C39.208 448.88 38.76 447.456 37.864 446.592C36.984 445.728 35.76 445.296 34.192 445.296H33.088V456.528ZM45.5785 459V442.8H48.6505V449.976H48.7225L54.2665 442.8H57.6745L52.7065 449.184L58.5385 459H55.1305L50.8825 451.584L48.6505 454.392V459H45.5785ZM60.4848 459V442.8H63.5568V449.976H63.6288L69.1728 442.8H72.5807L67.6128 449.184L73.4448 459H70.0368L65.7888 451.584L63.5568 454.392V459H60.4848ZM81.9016 459V456.528H85.4056V446.472H82.4776V444.576C83.2776 444.432 83.9656 444.256 84.5416 444.048C85.1336 443.824 85.6776 443.552 86.1736 443.232H88.4536V456.528H91.5256V459H81.9016ZM98.3464 459.288C97.3704 459.288 96.5224 459.112 95.8024 458.76C95.0984 458.408 94.5064 457.984 94.0264 457.488L95.6824 455.64C95.9704 455.976 96.3384 456.256 96.7864 456.48C97.2344 456.704 97.6904 456.816 98.1544 456.816C98.8264 456.816 99.4344 456.624 99.9784 456.24C100.538 455.856 100.978 455.216 101.298 454.32C101.618 453.424 101.778 452.208 101.778 450.672C101.778 448.72 101.498 447.336 100.938 446.52C100.394 445.688 99.6984 445.272 98.8504 445.272C98.2264 445.272 97.6904 445.512 97.2424 445.992C96.8104 446.472 96.5944 447.192 96.5944 448.152C96.5944 449.048 96.8104 449.72 97.2424 450.168C97.6744 450.6 98.2504 450.816 98.9704 450.816C99.4344 450.816 99.9064 450.672 100.386 450.384C100.882 450.096 101.346 449.608 101.778 448.92L101.898 451.032C101.466 451.656 100.914 452.144 100.242 452.496C99.5864 452.848 98.9784 453.024 98.4184 453.024C97.0584 453.024 95.9464 452.624 95.0824 451.824C94.2184 451.024 93.7864 449.8 93.7864 448.152C93.7864 447.08 94.0104 446.16 94.4584 445.392C94.9224 444.608 95.5304 444 96.2824 443.568C97.0504 443.136 97.8904 442.92 98.8024 442.92C99.8424 442.92 100.794 443.2 101.658 443.76C102.538 444.304 103.25 445.144 103.794 446.28C104.338 447.416 104.61 448.88 104.61 450.672C104.61 452.704 104.314 454.352 103.722 455.616C103.13 456.88 102.354 457.808 101.394 458.4C100.45 458.992 99.4344 459.288 98.3464 459.288ZM111.143 459.288C110.167 459.288 109.319 459.112 108.599 458.76C107.895 458.408 107.303 457.984 106.823 457.488L108.479 455.64C108.767 455.976 109.135 456.256 109.583 456.48C110.031 456.704 110.487 456.816 110.951 456.816C111.623 456.816 112.231 456.624 112.775 456.24C113.335 455.856 113.775 455.216 114.095 454.32C114.415 453.424 114.575 452.208 114.575 450.672C114.575 448.72 114.295 447.336 113.735 446.52C113.191 445.688 112.495 445.272 111.647 445.272C111.023 445.272 110.487 445.512 110.039 445.992C109.607 446.472 109.391 447.192 109.391 448.152C109.391 449.048 109.607 449.72 110.039 450.168C110.471 450.6 111.047 450.816 111.767 450.816C112.231 450.816 112.703 450.672 113.183 450.384C113.679 450.096 114.143 449.608 114.575 448.92L114.695 451.032C114.263 451.656 113.711 452.144 113.039 452.496C112.383 452.848 111.775 453.024 111.215 453.024C109.855 453.024 108.743 452.624 107.879 451.824C107.015 451.024 106.583 449.8 106.583 448.152C106.583 447.08 106.807 446.16 107.255 445.392C107.719 444.608 108.327 444 109.079 443.568C109.847 443.136 110.687 442.92 111.599 442.92C112.639 442.92 113.591 443.2 114.455 443.76C115.335 444.304 116.047 445.144 116.591 446.28C117.135 447.416 117.407 448.88 117.407 450.672C117.407 452.704 117.111 454.352 116.519 455.616C115.927 456.88 115.151 457.808 114.191 458.4C113.247 458.992 112.231 459.288 111.143 459.288ZM124.492 459.288C123.212 459.288 122.132 459.08 121.252 458.664C120.388 458.232 119.652 457.712 119.044 457.104L120.484 455.16C120.948 455.608 121.468 456 122.044 456.336C122.636 456.656 123.316 456.816 124.084 456.816C124.948 456.816 125.652 456.568 126.196 456.072C126.74 455.56 127.012 454.848 127.012 453.936C127.012 453.04 126.756 452.352 126.244 451.872C125.732 451.376 125.06 451.128 124.228 451.128C123.748 451.128 123.332 451.192 122.98 451.32C122.644 451.448 122.236 451.672 121.756 451.992L120.34 451.056L120.796 443.232H129.34V445.824H123.436L123.124 449.4C123.444 449.256 123.764 449.144 124.084 449.064C124.404 448.984 124.756 448.944 125.14 448.944C126.036 448.944 126.86 449.12 127.612 449.472C128.38 449.808 128.988 450.344 129.436 451.08C129.884 451.8 130.108 452.72 130.108 453.84C130.108 455.008 129.844 456 129.316 456.816C128.788 457.616 128.1 458.232 127.252 458.664C126.404 459.08 125.484 459.288 124.492 459.288ZM133.233 455.544H136.497V459H133.233V455.544ZM144.846 459.288C143.182 459.288 141.862 458.584 140.886 457.176C139.91 455.768 139.422 453.728 139.422 451.056C139.422 448.384 139.91 446.36 140.886 444.984C141.862 443.608 143.182 442.92 144.846 442.92C146.494 442.92 147.806 443.616 148.782 445.008C149.758 446.384 150.246 448.4 150.246 451.056C150.246 453.728 149.758 455.768 148.782 457.176C147.806 458.584 146.494 459.288 144.846 459.288ZM144.846 456.936C145.326 456.936 145.75 456.752 146.118 456.384C146.502 456.016 146.806 455.408 147.03 454.56C147.254 453.696 147.366 452.528 147.366 451.056C147.366 449.584 147.254 448.432 147.03 447.6C146.806 446.768 146.502 446.184 146.118 445.848C145.75 445.512 145.326 445.344 144.846 445.344C144.35 445.344 143.91 445.512 143.526 445.848C143.158 446.184 142.862 446.768 142.638 447.6C142.414 448.432 142.302 449.584 142.302 451.056C142.302 452.528 142.414 453.696 142.638 454.56C142.862 455.408 143.158 456.016 143.526 456.384C143.91 456.752 144.35 456.936 144.846 456.936ZM157.642 459.288C155.978 459.288 154.658 458.584 153.682 457.176C152.706 455.768 152.218 453.728 152.218 451.056C152.218 448.384 152.706 446.36 153.682 444.984C154.658 443.608 155.978 442.92 157.642 442.92C159.29 442.92 160.602 443.616 161.578 445.008C162.554 446.384 163.042 448.4 163.042 451.056C163.042 453.728 162.554 455.768 161.578 457.176C160.602 458.584 159.29 459.288 157.642 459.288ZM157.642 456.936C158.122 456.936 158.546 456.752 158.914 456.384C159.298 456.016 159.602 455.408 159.826 454.56C160.05 453.696 160.162 452.528 160.162 451.056C160.162 449.584 160.05 448.432 159.826 447.6C159.602 446.768 159.298 446.184 158.914 445.848C158.546 445.512 158.122 445.344 157.642 445.344C157.146 445.344 156.706 445.512 156.322 445.848C155.954 446.184 155.658 446.768 155.434 447.6C155.21 448.432 155.098 449.584 155.098 451.056C155.098 452.528 155.21 453.696 155.434 454.56C155.658 455.408 155.954 456.016 156.322 456.384C156.706 456.752 157.146 456.936 157.642 456.936Z" fill="#272320"/>
<g filter="url(#filter2_d_59_113)">
<circle cx="239.5" cy="450.5" r="12.25" fill="#C69F9A" stroke="#272320" stroke-width="0.5"/>
<circle cx="266.5" cy="450.5" r="12.5" fill="#CBB0C3"/>
<circle cx="293.5" cy="450.5" r="12.5" fill="#F5EEE8"/>
<circle cx="320.5" cy="450.5" r="12.5" fill="#9BA695"/>
</g>
<g filter="url(#filter3_d_59_113)">
<rect x="28.25" y="489.25" width="311.5" height="32.5" rx="16.25" fill="#F9D8D8" stroke="#272320" stroke-width="0.5"/>
<path d="M130.244 512V502.304H126.948V501.152H134.884V502.304H131.604V512H130.244ZM136.688 512V503.984H138.048V512H136.688ZM137.376 502.32C137.12 502.32 136.901 502.24 136.72 502.08C136.538 501.909 136.448 501.696 136.448 501.44C136.448 501.173 136.538 500.96 136.72 500.8C136.901 500.64 137.12 500.56 137.376 500.56C137.642 500.56 137.866 500.64 138.048 500.8C138.229 500.96 138.32 501.173 138.32 501.44C138.32 501.696 138.229 501.909 138.048 502.08C137.866 502.24 137.642 502.32 137.376 502.32ZM142.19 512.192C141.678 512.192 141.31 512.043 141.086 511.744C140.862 511.435 140.75 510.987 140.75 510.4V500.224H142.11V510.512C142.11 510.715 142.148 510.864 142.222 510.96C142.297 511.045 142.382 511.088 142.478 511.088C142.521 511.088 142.558 511.088 142.59 511.088C142.633 511.077 142.697 511.067 142.782 511.056L142.958 512.064C142.862 512.096 142.75 512.123 142.622 512.144C142.505 512.176 142.361 512.192 142.19 512.192ZM145.178 512V502.688C145.178 501.877 145.364 501.232 145.738 500.752C146.122 500.272 146.714 500.032 147.514 500.032C147.759 500.032 147.994 500.059 148.218 500.112C148.452 500.165 148.66 500.229 148.842 500.304L148.554 501.328C148.266 501.189 147.962 501.12 147.642 501.12C146.884 501.12 146.506 501.643 146.506 502.688V512H145.178ZM144.074 505.072V504.048L145.226 503.984H148.218V505.072H144.074ZM152.855 512.192C152.204 512.192 151.596 512.027 151.031 511.696C150.465 511.365 150.007 510.891 149.655 510.272C149.313 509.643 149.143 508.885 149.143 508C149.143 507.104 149.313 506.341 149.655 505.712C150.007 505.083 150.465 504.603 151.031 504.272C151.596 503.941 152.204 503.776 152.855 503.776C153.516 503.776 154.129 503.941 154.695 504.272C155.26 504.603 155.713 505.083 156.055 505.712C156.407 506.341 156.583 507.104 156.583 508C156.583 508.885 156.407 509.643 156.055 510.272C155.713 510.891 155.26 511.365 154.695 511.696C154.129 512.027 153.516 512.192 152.855 512.192ZM152.855 511.12C153.324 511.12 153.74 510.992 154.103 510.736C154.465 510.48 154.748 510.123 154.951 509.664C155.153 509.205 155.255 508.672 155.255 508.064C155.255 507.072 155.031 506.288 154.583 505.712C154.135 505.136 153.559 504.848 152.855 504.848C152.396 504.848 151.985 504.981 151.623 505.248C151.271 505.504 150.988 505.867 150.775 506.336C150.572 506.795 150.471 507.333 150.471 507.952C150.471 508.933 150.695 509.707 151.143 510.272C151.591 510.837 152.161 511.12 152.855 511.12ZM149.751 512.368L149.143 511.92L155.991 503.6L156.583 504.08L149.751 512.368ZM157.856 515.584C157.61 515.584 157.392 515.563 157.2 515.52C157.008 515.477 156.837 515.429 156.688 515.376L156.976 514.352C157.082 514.384 157.2 514.411 157.328 514.432C157.445 514.464 157.573 514.48 157.712 514.48C158.117 514.48 158.384 514.341 158.512 514.064C158.64 513.787 158.704 513.403 158.704 512.912V503.984H160.048V512.912C160.048 513.733 159.882 514.384 159.552 514.864C159.221 515.344 158.656 515.584 157.856 515.584ZM159.392 502.32C159.136 502.32 158.917 502.24 158.736 502.08C158.554 501.909 158.464 501.696 158.464 501.44C158.464 501.173 158.554 500.96 158.736 500.8C158.917 500.64 159.136 500.56 159.392 500.56C159.648 500.56 159.866 500.64 160.048 500.8C160.229 500.96 160.32 501.173 160.32 501.44C160.32 501.696 160.229 501.909 160.048 502.08C159.866 502.24 159.648 502.32 159.392 502.32ZM169.635 512V502.304H166.339V501.152H174.275V502.304H170.995V512H169.635ZM176.078 512V503.984H177.438V512H176.078ZM176.766 502.32C176.51 502.32 176.292 502.24 176.11 502.08C175.929 501.909 175.838 501.696 175.838 501.44C175.838 501.173 175.929 500.96 176.11 500.8C176.292 500.64 176.51 500.56 176.766 500.56C177.033 500.56 177.257 500.64 177.438 500.8C177.62 500.96 177.71 501.173 177.71 501.44C177.71 501.696 177.62 501.909 177.438 502.08C177.257 502.24 177.033 502.32 176.766 502.32ZM181.581 512.192C181.069 512.192 180.701 512.043 180.477 511.744C180.253 511.435 180.141 510.987 180.141 510.4V500.224H181.501V510.512C181.501 510.715 181.538 510.864 181.613 510.96C181.688 511.045 181.773 511.088 181.869 511.088C181.912 511.088 181.949 511.088 181.981 511.088C182.024 511.077 182.088 511.067 182.173 511.056L182.349 512.064C182.253 512.096 182.141 512.123 182.013 512.144C181.896 512.176 181.752 512.192 181.581 512.192ZM188.941 512V501.152H190.301V506.624H190.365L194.893 501.152H196.429L193.037 505.28L196.941 512H195.437L192.173 506.352L190.301 508.56V512H188.941ZM200.712 512.192C199.869 512.192 199.25 511.931 198.856 511.408C198.461 510.875 198.264 510.096 198.264 509.072V503.984H199.608V508.896C199.608 509.643 199.725 510.187 199.96 510.528C200.205 510.869 200.594 511.04 201.128 511.04C201.544 511.04 201.912 510.933 202.232 510.72C202.552 510.496 202.904 510.149 203.288 509.68V503.984H204.632V512H203.528L203.416 510.752H203.368C202.994 511.189 202.594 511.541 202.168 511.808C201.752 512.064 201.266 512.192 200.712 512.192ZM207.328 512V503.984H208.448L208.56 505.44H208.608C208.886 504.928 209.222 504.523 209.616 504.224C210.011 503.925 210.432 503.776 210.88 503.776C211.222 503.776 211.51 503.835 211.744 503.952L211.488 505.12C211.35 505.077 211.227 505.045 211.12 505.024C211.014 505.003 210.88 504.992 210.72 504.992C210.379 504.992 210.022 505.131 209.648 505.408C209.275 505.675 208.955 506.155 208.688 506.848V512H207.328ZM214.791 512L211.895 503.984H213.271L214.807 508.544C214.924 508.939 215.047 509.339 215.175 509.744C215.303 510.139 215.431 510.528 215.559 510.912H215.623C215.74 510.528 215.858 510.139 215.975 509.744C216.103 509.339 216.231 508.939 216.359 508.544L217.879 503.984H219.207L216.359 512H214.791Z" fill="#272320"/>
<path d="M227.092 500.5H239.77C240.918 500.5 241.748 501.558 241.433 502.623L240.054 507.29C239.842 508.007 239.163 508.5 238.392 508.5H230.76C229.988 508.5 229.308 508.006 229.097 507.29L227.092 500.5ZM227.092 500.5L226.5 498.5M237.75 513.5C238.082 513.5 238.4 513.368 238.634 513.134C238.868 512.899 239 512.582 239 512.25C239 511.918 238.868 511.601 238.634 511.366C238.4 511.132 238.082 511 237.75 511C237.419 511 237.101 511.132 236.866 511.366C236.632 511.601 236.5 511.918 236.5 512.25C236.5 512.582 236.632 512.899 236.866 513.134C237.101 513.368 237.419 513.5 237.75 513.5ZM231.083 513.5C231.415 513.5 231.733 513.368 231.967 513.134C232.202 512.899 232.333 512.582 232.333 512.25C232.333 511.918 232.202 511.601 231.967 511.366C231.733 511.132 231.415 511 231.083 511C230.752 511 230.434 511.132 230.199 511.366C229.965 511.601 229.833 511.918 229.833 512.25C229.833 512.582 229.965 512.899 230.199 513.134C230.434 513.368 230.752 513.5 231.083 513.5Z" stroke="#272320" stroke-width="1.2" stroke-linecap="round" stroke-linejoin="round"/>
</g>
</g>
<defs>
<filter id="filter0_d_59_113" x="0" y="0" width="369" height="572" filterUnits="userSpaceOnUse" color-interpolation-filters="sRGB">
<feFlood flood-opacity="0" result="BackgroundImageFix"/>
<feColorMatrix in="SourceAlpha" type="matrix" values="0 0 0 0 0 0 0 0 0 0 0 0 0 0 0 0 0 0 127 0" result="hardAlpha"/>
<feOffset dy="4"/>
<feGaussianBlur stdDeviation="2"/>
<feComposite in2="hardAlpha" operator="out"/>
<feColorMatrix type="matrix" values="0 0 0 0 0 0 0 0 0 0 0 0 0 0 0 0 0 0 0.25 0"/>
<feBlend mode="normal" in2="BackgroundImageFix" result="effect1_dropShadow_59_113"/>
<feBlend mode="normal" in="SourceGraphic" in2="effect1_dropShadow_59_113" result="shape"/>
</filter>
<filter id="filter1_d_59_113" x="24" y="27" width="320" height="330" filterUnits="userSpaceOnUse" color-interpolation-filters="sRGB">
<feFlood flood-opacity="0" result="BackgroundImageFix"/>
<feColorMatrix in="SourceAlpha" type="matrix" values="0 0 0 0 0 0 0 0 0 0 0 0 0 0 0 0 0 0 127 0" result="hardAlpha"/>
<feOffset dy="4"/>
<feGaussianBlur stdDeviation="2"/>
<feComposite in2="hardAlpha" operator="out"/>
<feColorMatrix type="matrix" values="0 0 0 0 0 0 0 0 0 0 0 0 0 0 0 0 0 0 0.25 0"/>
<feBlend mode="normal" in2="BackgroundImageFix" result="effect1_dropShadow_59_113"/>
<feBlend mode="normal" in="SourceGraphic" in2="effect1_dropShadow_59_113" result="shape"/>
</filter>
<filter id="filter2_d_59_113" x="223" y="436" width="114" height="33" filterUnits="userSpaceOnUse" color-interpolation-filters="sRGB">
<feFlood flood-opacity="0" result="BackgroundImageFix"/>
<feColorMatrix in="SourceAlpha" type="matrix" values="0 0 0 0 0 0 0 0 0 0 0 0 0 0 0 0 0 0 127 0" result="hardAlpha"/>
<feOffset dy="2"/>
<feGaussianBlur stdDeviation="2"/>
<feComposite in2="hardAlpha" operator="out"/>
<feColorMatrix type="matrix" values="0 0 0 0 0 0 0 0 0 0 0 0 0 0 0 0 0 0 0.25 0"/>
<feBlend mode="normal" in2="BackgroundImageFix" result="effect1_dropShadow_59_113"/>
<feBlend mode="normal" in="SourceGraphic" in2="effect1_dropShadow_59_113" result="shape"/>
</filter>
<filter id="filter3_d_59_113" x="24" y="489" width="320" height="41" filterUnits="userSpaceOnUse" color-interpolation-filters="sRGB">
<feFlood flood-opacity="0" result="BackgroundImageFix"/>
<feColorMatrix in="SourceAlpha" type="matrix" values="0 0 0 0 0 0 0 0 0 0 0 0 0 0 0 0 0 0 127 0" result="hardAlpha"/>
<feOffset dy="4"/>
<feGaussianBlur stdDeviation="2"/>
<feComposite in2="hardAlpha" operator="out"/>
<feColorMatrix type="matrix" values="0 0 0 0 0 0 0 0 0 0 0 0 0 0 0 0 0 0 0.25 0"/>
<feBlend mode="normal" in2="BackgroundImageFix" result="effect1_dropShadow_59_113"/>
<feBlend mode="normal" in="SourceGraphic" in2="effect1_dropShadow_59_113" result="shape"/>
</filter>
</defs>
</svg>
