<svg width="58" height="58" viewBox="0 0 58 58" fill="none" xmlns="http://www.w3.org/2000/svg">
<g filter="url(#filter0_d_220_576)">
<circle cx="29" cy="25" r="25" fill="#F9D8D8"/>
</g>
<path d="M35.95 17.9069C34.561 16.5185 32.7914 15.5731 30.8652 15.1904C28.9389 14.8077 26.9424 15.0047 25.1281 15.7567C23.3138 16.5086 21.7632 17.7816 20.6724 19.4148C19.5816 21.048 18.9996 22.9679 19 24.9319C19 27.5659 20.046 30.0922 21.9081 31.9552C23.7702 33.8182 26.2959 34.8655 28.93 34.8669C30.2334 34.8669 31.5243 34.6121 32.73 34.1169C33.9316 33.6094 35.0246 32.8761 35.95 31.9569C36.8726 31.0344 37.6045 29.9392 38.1039 28.7338C38.6032 27.5285 38.8602 26.2366 38.8602 24.9319C38.8602 23.6272 38.6032 22.3353 38.1039 21.1299C37.6045 19.9245 36.8726 18.8293 35.95 17.9069ZM35.25 31.2469C33.8201 32.683 31.9438 33.5894 29.93 33.8169V27.2569H31.81C32.0752 27.2569 32.3296 27.1515 32.5171 26.964C32.7046 26.7764 32.81 26.5221 32.81 26.2569C32.81 25.9916 32.7046 25.7373 32.5171 25.5498C32.3296 25.3622 32.0752 25.2569 31.81 25.2569H29.93V22.5169C29.93 22.2516 30.0354 21.9973 30.2229 21.8098C30.4104 21.6222 30.6648 21.5169 30.93 21.5169H32.13C32.3952 21.5169 32.6496 21.4115 32.8371 21.224C33.0246 21.0364 33.13 20.7821 33.13 20.5169C33.13 20.2516 33.0246 19.9973 32.8371 19.8098C32.6496 19.6222 32.3952 19.5169 32.13 19.5169H30.43C29.767 19.5169 29.1311 19.7803 28.6622 20.2491C28.1934 20.7179 27.93 21.3538 27.93 22.0169V25.2569H26.06C25.7948 25.2569 25.5404 25.3622 25.3529 25.5498C25.1654 25.7373 25.06 25.9916 25.06 26.2569C25.06 26.5221 25.1654 26.7764 25.3529 26.964C25.5404 27.1515 25.7948 27.2569 26.06 27.2569H27.93V33.8169C26.0729 33.605 24.3293 32.815 22.9454 31.5585C21.5616 30.302 20.6075 28.6426 20.2179 26.8145C19.8283 24.9864 20.0229 23.0821 20.7741 21.3705C21.5254 19.659 22.7954 18.2267 24.4048 17.2761C26.0141 16.3254 27.8814 15.9044 29.743 16.0725C31.6046 16.2406 33.3663 16.9893 34.7794 18.2128C36.1924 19.4364 37.1853 21.0729 37.6179 22.8913C38.0504 24.7098 37.9008 26.6181 37.19 28.3469C36.7364 29.4296 36.0777 30.4144 35.25 31.2469Z" fill="black"/>
<defs>
<filter id="filter0_d_220_576" x="0" y="0" width="58" height="58" filterUnits="userSpaceOnUse" color-interpolation-filters="sRGB">
<feFlood flood-opacity="0" result="BackgroundImageFix"/>
<feColorMatrix in="SourceAlpha" type="matrix" values="0 0 0 0 0 0 0 0 0 0 0 0 0 0 0 0 0 0 127 0" result="hardAlpha"/>
<feOffset dy="4"/>
<feGaussianBlur stdDeviation="2"/>
<feComposite in2="hardAlpha" operator="out"/>
<feColorMatrix type="matrix" values="0 0 0 0 0 0 0 0 0 0 0 0 0 0 0 0 0 0 0.25 0"/>
<feBlend mode="normal" in2="BackgroundImageFix" result="effect1_dropShadow_220_576"/>
<feBlend mode="normal" in="SourceGraphic" in2="effect1_dropShadow_220_576" result="shape"/>
</filter>
</defs>
</svg>
