<svg width="369" height="572" viewBox="0 0 369 572" fill="none" xmlns="http://www.w3.org/2000/svg">
<g filter="url(#filter0_d_59_99)">
<rect x="4" width="361" height="564" rx="30" fill="#F9F6F5" shape-rendering="crispEdges"/>
<g filter="url(#filter1_d_59_99)">
<rect x="28" y="27" width="312" height="322" rx="30" fill="#DCD2C9" fill-opacity="0.4" shape-rendering="crispEdges"/>
</g>
<path d="M30.576 387V368.016H32.956V384.984H41.272V387H30.576ZM51.3513 387.336C50.0633 387.336 48.906 387.084 47.8793 386.58C46.8527 386.057 46.0407 385.208 45.4433 384.032C44.846 382.837 44.5473 381.223 44.5473 379.188V368.016H46.8993V379.244C46.8993 380.775 47.0953 381.979 47.4873 382.856C47.898 383.733 48.43 384.359 49.0833 384.732C49.7553 385.087 50.5113 385.264 51.3513 385.264C52.1913 385.264 52.9473 385.087 53.6193 384.732C54.31 384.359 54.8513 383.733 55.2433 382.856C55.654 381.979 55.8593 380.775 55.8593 379.244V368.016H58.1553V379.188C58.1553 381.223 57.8567 382.837 57.2593 384.032C56.662 385.208 55.8407 386.057 54.7953 386.58C53.7687 387.084 52.6207 387.336 51.3513 387.336ZM63.2518 387V368.016H66.1638L69.7758 378.18C70.0184 378.833 70.2518 379.496 70.4758 380.168C70.6998 380.84 70.9238 381.512 71.1478 382.184H71.2598C71.4838 381.512 71.6984 380.84 71.9038 380.168C72.1278 379.496 72.3518 378.833 72.5758 378.18L76.1878 368.016H79.0718V387H76.8598V376.5C76.8598 375.679 76.8878 374.745 76.9438 373.7C77.0184 372.655 77.0838 371.712 77.1398 370.872H77.0278L75.5438 375.212L71.9318 385.096H70.3638L66.7518 375.212L65.2398 370.872H65.1278C65.1838 371.712 65.2491 372.655 65.3238 373.7C65.3984 374.745 65.4358 375.679 65.4358 376.5V387H63.2518ZM84.2518 387V368.016H86.6318V387H84.2518ZM91.8533 387V368.016H94.3453L101.233 380L103.277 383.948H103.389C103.333 382.977 103.268 381.979 103.193 380.952C103.119 379.907 103.081 378.889 103.081 377.9V368.016H105.377V387H102.885L95.9973 375.016L93.9533 371.096H93.8133C93.8693 372.067 93.9347 373.047 94.0093 374.036C94.084 375.025 94.1213 376.015 94.1213 377.004V387H91.8533ZM121.029 387L119.209 381.204H112.321L110.445 387H108.009L114.449 368.016H117.137L123.577 387H121.029ZM112.825 379.3H118.677L117.725 376.388C117.37 375.324 117.034 374.269 116.717 373.224C116.418 372.16 116.12 371.087 115.821 370.004H115.709C115.41 371.087 115.102 372.16 114.785 373.224C114.468 374.269 114.141 375.324 113.805 376.388L112.825 379.3ZM141.072 387.336C139.504 387.336 138.104 386.935 136.872 386.132C135.659 385.329 134.707 384.191 134.016 382.716C133.325 381.241 132.98 379.487 132.98 377.452C132.98 375.436 133.325 373.7 134.016 372.244C134.707 370.769 135.659 369.64 136.872 368.856C138.104 368.072 139.504 367.68 141.072 367.68C142.677 367.68 144.087 368.072 145.3 368.856C146.513 369.64 147.465 370.769 148.156 372.244C148.847 373.7 149.192 375.436 149.192 377.452C149.192 379.487 148.847 381.241 148.156 382.716C147.465 384.191 146.513 385.329 145.3 386.132C144.087 386.935 142.677 387.336 141.072 387.336ZM141.072 385.264C142.211 385.264 143.2 384.947 144.04 384.312C144.899 383.659 145.561 382.753 146.028 381.596C146.495 380.42 146.728 379.039 146.728 377.452C146.728 375.884 146.495 374.531 146.028 373.392C145.561 372.235 144.899 371.348 144.04 370.732C143.2 370.097 142.211 369.78 141.072 369.78C139.952 369.78 138.963 370.097 138.104 370.732C137.264 371.348 136.611 372.235 136.144 373.392C135.677 374.531 135.444 375.884 135.444 377.452C135.444 379.039 135.677 380.42 136.144 381.596C136.611 382.753 137.264 383.659 138.104 384.312C138.963 384.947 139.952 385.264 141.072 385.264ZM153.043 387V372.972H155.003L155.199 374.988H155.283C155.955 374.316 156.665 373.756 157.411 373.308C158.177 372.841 159.035 372.608 159.987 372.608C161.481 372.608 162.563 373.075 163.235 374.008C163.926 374.941 164.271 376.304 164.271 378.096V387H161.947V378.404C161.947 377.097 161.733 376.145 161.303 375.548C160.893 374.951 160.211 374.652 159.259 374.652C158.55 374.652 157.906 374.839 157.327 375.212C156.749 375.567 156.114 376.108 155.423 376.836V387H153.043ZM174.532 387.336C173.281 387.336 172.143 387.047 171.116 386.468C170.108 385.889 169.305 385.049 168.708 383.948C168.111 382.847 167.812 381.531 167.812 380C167.812 378.469 168.111 377.153 168.708 376.052C169.324 374.951 170.108 374.101 171.06 373.504C172.031 372.907 173.048 372.608 174.112 372.608C175.904 372.608 177.285 373.205 178.256 374.4C179.245 375.595 179.74 377.2 179.74 379.216C179.74 379.459 179.731 379.701 179.712 379.944C179.693 380.168 179.665 380.364 179.628 380.532H170.136C170.229 382.025 170.696 383.229 171.536 384.144C172.376 385.04 173.468 385.488 174.812 385.488C175.503 385.488 176.128 385.385 176.688 385.18C177.267 384.975 177.817 384.704 178.34 384.368L179.18 385.908C178.564 386.3 177.873 386.636 177.108 386.916C176.361 387.196 175.503 387.336 174.532 387.336ZM170.108 378.852H177.64C177.64 377.433 177.332 376.351 176.716 375.604C176.119 374.857 175.269 374.484 174.168 374.484C173.179 374.484 172.292 374.867 171.508 375.632C170.724 376.397 170.257 377.471 170.108 378.852Z" fill="#272320"/>
<path d="M29.288 421V411.508H30.744L32.55 416.59C32.6713 416.917 32.788 417.248 32.9 417.584C33.012 417.92 33.124 418.256 33.236 418.592H33.292C33.404 418.256 33.5113 417.92 33.614 417.584C33.726 417.248 33.838 416.917 33.95 416.59L35.756 411.508H37.198V421H36.092V415.75C36.092 415.339 36.106 414.873 36.134 414.35C36.1713 413.827 36.204 413.356 36.232 412.936H36.176L35.434 415.106L33.628 420.048H32.844L31.038 415.106L30.282 412.936H30.226C30.254 413.356 30.2867 413.827 30.324 414.35C30.3613 414.873 30.38 415.339 30.38 415.75V421H29.288ZM42.406 421.168C41.8367 421.168 41.3047 421.023 40.81 420.734C40.3153 420.445 39.914 420.029 39.606 419.488C39.3073 418.937 39.158 418.275 39.158 417.5C39.158 416.716 39.3073 416.049 39.606 415.498C39.914 414.947 40.3153 414.527 40.81 414.238C41.3047 413.949 41.8367 413.804 42.406 413.804C42.9847 413.804 43.5213 413.949 44.016 414.238C44.5107 414.527 44.9073 414.947 45.206 415.498C45.514 416.049 45.668 416.716 45.668 417.5C45.668 418.275 45.514 418.937 45.206 419.488C44.9073 420.029 44.5107 420.445 44.016 420.734C43.5213 421.023 42.9847 421.168 42.406 421.168ZM42.406 420.202C43.022 420.202 43.5167 419.955 43.89 419.46C44.2633 418.965 44.45 418.312 44.45 417.5C44.45 416.688 44.2633 416.035 43.89 415.54C43.5167 415.036 43.022 414.784 42.406 414.784C41.7993 414.784 41.3093 415.036 40.936 415.54C40.5627 416.035 40.376 416.688 40.376 417.5C40.376 418.312 40.5627 418.965 40.936 419.46C41.3093 419.955 41.7993 420.202 42.406 420.202ZM50.24 421.168C49.6707 421.168 49.1387 421.023 48.644 420.734C48.1493 420.445 47.748 420.029 47.44 419.488C47.1413 418.937 46.992 418.275 46.992 417.5C46.992 416.716 47.1413 416.049 47.44 415.498C47.748 414.947 48.1493 414.527 48.644 414.238C49.1387 413.949 49.6707 413.804 50.24 413.804C50.8187 413.804 51.3553 413.949 51.85 414.238C52.3447 414.527 52.7413 414.947 53.04 415.498C53.348 416.049 53.502 416.716 53.502 417.5C53.502 418.275 53.348 418.937 53.04 419.488C52.7413 420.029 52.3447 420.445 51.85 420.734C51.3553 421.023 50.8187 421.168 50.24 421.168ZM50.24 420.202C50.856 420.202 51.3507 419.955 51.724 419.46C52.0973 418.965 52.284 418.312 52.284 417.5C52.284 416.688 52.0973 416.035 51.724 415.54C51.3507 415.036 50.856 414.784 50.24 414.784C49.6333 414.784 49.1433 415.036 48.77 415.54C48.3967 416.035 48.21 416.688 48.21 417.5C48.21 418.312 48.3967 418.965 48.77 419.46C49.1433 419.955 49.6333 420.202 50.24 420.202ZM55.344 421V413.986H56.324L56.422 414.994H56.464C56.8 414.658 57.1546 414.378 57.528 414.154C57.9106 413.921 58.34 413.804 58.816 413.804C59.5626 413.804 60.104 414.037 60.44 414.504C60.7853 414.971 60.958 415.652 60.958 416.548V421H59.796V416.702C59.796 416.049 59.6886 415.573 59.474 415.274C59.2686 414.975 58.928 414.826 58.452 414.826C58.0973 414.826 57.7753 414.919 57.486 415.106C57.1966 415.283 56.8793 415.554 56.534 415.918V421H55.344ZM64.5063 421.168C64.0583 421.168 63.7363 421.037 63.5403 420.776C63.3443 420.505 63.2463 420.113 63.2463 419.6V410.696H64.4363V419.698C64.4363 419.875 64.469 420.006 64.5343 420.09C64.5996 420.165 64.6743 420.202 64.7583 420.202C64.7956 420.202 64.8283 420.202 64.8563 420.202C64.8936 420.193 64.9496 420.183 65.0243 420.174L65.1783 421.056C65.0943 421.084 64.9963 421.107 64.8843 421.126C64.7816 421.154 64.6556 421.168 64.5063 421.168ZM66.9104 421V413.986H68.1004V421H66.9104ZM67.5124 412.53C67.2884 412.53 67.097 412.46 66.9384 412.32C66.7797 412.171 66.7004 411.984 66.7004 411.76C66.7004 411.527 66.7797 411.34 66.9384 411.2C67.097 411.06 67.2884 410.99 67.5124 410.99C67.7457 410.99 67.9417 411.06 68.1004 411.2C68.259 411.34 68.3384 411.527 68.3384 411.76C68.3384 411.984 68.259 412.171 68.1004 412.32C67.9417 412.46 67.7457 412.53 67.5124 412.53ZM72.8451 424.234C71.9864 424.234 71.2864 424.071 70.7451 423.744C70.2131 423.417 69.9471 422.951 69.9471 422.344C69.9471 422.045 70.0357 421.756 70.2131 421.476C70.3997 421.205 70.6517 420.967 70.9691 420.762V420.706C70.7917 420.594 70.6424 420.445 70.5211 420.258C70.3997 420.062 70.3391 419.829 70.3391 419.558C70.3391 419.269 70.4231 419.012 70.5911 418.788C70.7591 418.555 70.9317 418.377 71.1091 418.256V418.2C70.8757 418.013 70.6657 417.757 70.4791 417.43C70.2924 417.103 70.1991 416.73 70.1991 416.31C70.1991 415.797 70.3204 415.353 70.5631 414.98C70.8057 414.607 71.1277 414.317 71.5291 414.112C71.9304 413.907 72.3691 413.804 72.8451 413.804C73.0317 413.804 73.2091 413.823 73.3771 413.86C73.5544 413.888 73.7037 413.93 73.8251 413.986H76.2751V414.882H74.8331C75.0011 415.041 75.1364 415.251 75.2391 415.512C75.3511 415.764 75.4071 416.039 75.4071 416.338C75.4071 416.833 75.2904 417.267 75.0571 417.64C74.8331 418.004 74.5251 418.284 74.1331 418.48C73.7504 418.676 73.3211 418.774 72.8451 418.774C72.4717 418.774 72.1171 418.695 71.7811 418.536C71.6597 418.639 71.5524 418.755 71.4591 418.886C71.3751 419.017 71.3331 419.175 71.3331 419.362C71.3331 419.595 71.4171 419.787 71.5851 419.936C71.7624 420.076 72.0891 420.146 72.5651 420.146H73.9511C74.7631 420.146 75.3697 420.277 75.7711 420.538C76.1817 420.799 76.3871 421.219 76.3871 421.798C76.3871 422.237 76.2424 422.638 75.9531 423.002C75.6637 423.375 75.2531 423.674 74.7211 423.898C74.1891 424.122 73.5637 424.234 72.8451 424.234ZM72.8451 417.99C73.2464 417.99 73.5964 417.841 73.8951 417.542C74.1937 417.234 74.3431 416.823 74.3431 416.31C74.3431 415.797 74.1937 415.395 73.8951 415.106C73.6057 414.807 73.2557 414.658 72.8451 414.658C72.4251 414.658 72.0657 414.807 71.7671 415.106C71.4777 415.395 71.3331 415.797 71.3331 416.31C71.3331 416.823 71.4824 417.234 71.7811 417.542C72.0797 417.841 72.4344 417.99 72.8451 417.99ZM73.0131 423.422C73.4611 423.422 73.8531 423.352 74.1891 423.212C74.5251 423.081 74.7864 422.904 74.9731 422.68C75.1597 422.456 75.2531 422.223 75.2531 421.98C75.2531 421.653 75.1317 421.425 74.8891 421.294C74.6464 421.163 74.2917 421.098 73.8251 421.098H72.6071C72.4671 421.098 72.3177 421.089 72.1591 421.07C72.0004 421.061 71.8417 421.042 71.6831 421.014C71.4311 421.182 71.2491 421.369 71.1371 421.574C71.0251 421.779 70.9691 421.98 70.9691 422.176C70.9691 422.559 71.1464 422.862 71.5011 423.086C71.8651 423.31 72.3691 423.422 73.0131 423.422ZM77.7385 421V410.696H78.9285V413.524L78.8865 414.966C79.2038 414.649 79.5492 414.378 79.9225 414.154C80.3052 413.921 80.7345 413.804 81.2105 413.804C81.9572 413.804 82.4985 414.037 82.8345 414.504C83.1798 414.971 83.3525 415.652 83.3525 416.548V421H82.1905V416.702C82.1905 416.049 82.0832 415.573 81.8685 415.274C81.6632 414.975 81.3225 414.826 80.8465 414.826C80.4918 414.826 80.1698 414.919 79.8805 415.106C79.5912 415.283 79.2738 415.554 78.9285 415.918V421H77.7385ZM87.7982 421.168C87.0515 421.168 86.5288 420.958 86.2302 420.538C85.9408 420.109 85.7962 419.544 85.7962 418.844V414.938H84.7462V414.042L85.8522 413.986L85.9922 412.012H86.9722V413.986H88.8762V414.938H86.9722V418.858C86.9722 419.287 87.0515 419.623 87.2102 419.866C87.3782 420.099 87.6628 420.216 88.0642 420.216C88.1948 420.216 88.3302 420.197 88.4702 420.16C88.6195 420.123 88.7548 420.081 88.8762 420.034L89.0862 420.916C88.8902 420.981 88.6802 421.037 88.4562 421.084C88.2322 421.14 88.0128 421.168 87.7982 421.168ZM95.5392 421L93.5232 411.508H94.7552L95.7492 416.688C95.8518 417.201 95.9498 417.715 96.0432 418.228C96.1365 418.732 96.2298 419.241 96.3232 419.754H96.3792C96.4818 419.241 96.5892 418.727 96.7012 418.214C96.8225 417.701 96.9392 417.192 97.0512 416.688L98.3672 411.508H99.4452L100.775 416.688C100.887 417.192 100.999 417.701 101.111 418.214C101.223 418.727 101.34 419.241 101.461 419.754H101.517C101.611 419.241 101.699 418.727 101.783 418.214C101.867 417.701 101.956 417.192 102.049 416.688L103.057 411.508H104.205L102.245 421H100.817L99.3612 415.274C99.2772 414.901 99.1978 414.541 99.1232 414.196C99.0485 413.841 98.9738 413.482 98.8992 413.118H98.8432C98.7685 413.482 98.6892 413.841 98.6052 414.196C98.5305 414.541 98.4512 414.901 98.3672 415.274L96.9532 421H95.5392ZM105.725 421V410.696H106.915V413.524L106.873 414.966C107.19 414.649 107.535 414.378 107.909 414.154C108.291 413.921 108.721 413.804 109.197 413.804C109.943 413.804 110.485 414.037 110.821 414.504C111.166 414.971 111.339 415.652 111.339 416.548V421H110.177V416.702C110.177 416.049 110.069 415.573 109.855 415.274C109.649 414.975 109.309 414.826 108.833 414.826C108.478 414.826 108.156 414.919 107.867 415.106C107.577 415.283 107.26 415.554 106.915 415.918V421H105.725ZM113.572 421V413.986H114.762V421H113.572ZM114.174 412.53C113.95 412.53 113.759 412.46 113.6 412.32C113.442 412.171 113.362 411.984 113.362 411.76C113.362 411.527 113.442 411.34 113.6 411.2C113.759 411.06 113.95 410.99 114.174 410.99C114.408 410.99 114.604 411.06 114.762 411.2C114.921 411.34 115 411.527 115 411.76C115 411.984 114.921 412.171 114.762 412.32C114.604 412.46 114.408 412.53 114.174 412.53ZM119.339 421.168C118.593 421.168 118.07 420.958 117.771 420.538C117.482 420.109 117.337 419.544 117.337 418.844V414.938H116.287V414.042L117.393 413.986L117.533 412.012H118.513V413.986H120.417V414.938H118.513V418.858C118.513 419.287 118.593 419.623 118.751 419.866C118.919 420.099 119.204 420.216 119.605 420.216C119.736 420.216 119.871 420.197 120.011 420.16C120.161 420.123 120.296 420.081 120.417 420.034L120.627 420.916C120.431 420.981 120.221 421.037 119.997 421.084C119.773 421.14 119.554 421.168 119.339 421.168ZM124.836 421.168C124.211 421.168 123.642 421.023 123.128 420.734C122.624 420.445 122.223 420.025 121.924 419.474C121.626 418.923 121.476 418.265 121.476 417.5C121.476 416.735 121.626 416.077 121.924 415.526C122.232 414.975 122.624 414.551 123.1 414.252C123.586 413.953 124.094 413.804 124.626 413.804C125.522 413.804 126.213 414.103 126.698 414.7C127.193 415.297 127.44 416.1 127.44 417.108C127.44 417.229 127.436 417.351 127.426 417.472C127.417 417.584 127.403 417.682 127.384 417.766H122.638C122.685 418.513 122.918 419.115 123.338 419.572C123.758 420.02 124.304 420.244 124.976 420.244C125.322 420.244 125.634 420.193 125.914 420.09C126.204 419.987 126.479 419.852 126.74 419.684L127.16 420.454C126.852 420.65 126.507 420.818 126.124 420.958C125.751 421.098 125.322 421.168 124.836 421.168ZM122.624 416.926H126.39C126.39 416.217 126.236 415.675 125.928 415.302C125.63 414.929 125.205 414.742 124.654 414.742C124.16 414.742 123.716 414.933 123.324 415.316C122.932 415.699 122.699 416.235 122.624 416.926Z" fill="black"/>
<path d="M30.016 459V442.8H34.384C36.864 442.8 38.808 443.464 40.216 444.792C41.64 446.12 42.352 448.144 42.352 450.864C42.352 453.568 41.648 455.6 40.24 456.96C38.848 458.32 36.952 459 34.552 459H30.016ZM33.088 456.528H34.192C35.76 456.528 36.984 456.08 37.864 455.184C38.76 454.272 39.208 452.832 39.208 450.864C39.208 448.88 38.76 447.456 37.864 446.592C36.984 445.728 35.76 445.296 34.192 445.296H33.088V456.528ZM45.5785 459V442.8H48.6505V449.976H48.7225L54.2665 442.8H57.6745L52.7065 449.184L58.5385 459H55.1305L50.8825 451.584L48.6505 454.392V459H45.5785ZM60.4848 459V442.8H63.5568V449.976H63.6288L69.1728 442.8H72.5807L67.6128 449.184L73.4448 459H70.0368L65.7888 451.584L63.5568 454.392V459H60.4848ZM81.9016 459V456.528H85.4056V446.472H82.4776V444.576C83.2776 444.432 83.9656 444.256 84.5416 444.048C85.1336 443.824 85.6776 443.552 86.1736 443.232H88.4536V456.528H91.5256V459H81.9016ZM98.3464 459.288C97.3704 459.288 96.5224 459.112 95.8024 458.76C95.0984 458.408 94.5064 457.984 94.0264 457.488L95.6824 455.64C95.9704 455.976 96.3384 456.256 96.7864 456.48C97.2344 456.704 97.6904 456.816 98.1544 456.816C98.8264 456.816 99.4344 456.624 99.9784 456.24C100.538 455.856 100.978 455.216 101.298 454.32C101.618 453.424 101.778 452.208 101.778 450.672C101.778 448.72 101.498 447.336 100.938 446.52C100.394 445.688 99.6984 445.272 98.8504 445.272C98.2264 445.272 97.6904 445.512 97.2424 445.992C96.8104 446.472 96.5944 447.192 96.5944 448.152C96.5944 449.048 96.8104 449.72 97.2424 450.168C97.6744 450.6 98.2504 450.816 98.9704 450.816C99.4344 450.816 99.9064 450.672 100.386 450.384C100.882 450.096 101.346 449.608 101.778 448.92L101.898 451.032C101.466 451.656 100.914 452.144 100.242 452.496C99.5864 452.848 98.9784 453.024 98.4184 453.024C97.0584 453.024 95.9464 452.624 95.0824 451.824C94.2184 451.024 93.7864 449.8 93.7864 448.152C93.7864 447.08 94.0104 446.16 94.4584 445.392C94.9224 444.608 95.5304 444 96.2824 443.568C97.0504 443.136 97.8904 442.92 98.8024 442.92C99.8424 442.92 100.794 443.2 101.658 443.76C102.538 444.304 103.25 445.144 103.794 446.28C104.338 447.416 104.61 448.88 104.61 450.672C104.61 452.704 104.314 454.352 103.722 455.616C103.13 456.88 102.354 457.808 101.394 458.4C100.45 458.992 99.4344 459.288 98.3464 459.288ZM111.143 459.288C110.167 459.288 109.319 459.112 108.599 458.76C107.895 458.408 107.303 457.984 106.823 457.488L108.479 455.64C108.767 455.976 109.135 456.256 109.583 456.48C110.031 456.704 110.487 456.816 110.951 456.816C111.623 456.816 112.231 456.624 112.775 456.24C113.335 455.856 113.775 455.216 114.095 454.32C114.415 453.424 114.575 452.208 114.575 450.672C114.575 448.72 114.295 447.336 113.735 446.52C113.191 445.688 112.495 445.272 111.647 445.272C111.023 445.272 110.487 445.512 110.039 445.992C109.607 446.472 109.391 447.192 109.391 448.152C109.391 449.048 109.607 449.72 110.039 450.168C110.471 450.6 111.047 450.816 111.767 450.816C112.231 450.816 112.703 450.672 113.183 450.384C113.679 450.096 114.143 449.608 114.575 448.92L114.695 451.032C114.263 451.656 113.711 452.144 113.039 452.496C112.383 452.848 111.775 453.024 111.215 453.024C109.855 453.024 108.743 452.624 107.879 451.824C107.015 451.024 106.583 449.8 106.583 448.152C106.583 447.08 106.807 446.16 107.255 445.392C107.719 444.608 108.327 444 109.079 443.568C109.847 443.136 110.687 442.92 111.599 442.92C112.639 442.92 113.591 443.2 114.455 443.76C115.335 444.304 116.047 445.144 116.591 446.28C117.135 447.416 117.407 448.88 117.407 450.672C117.407 452.704 117.111 454.352 116.519 455.616C115.927 456.88 115.151 457.808 114.191 458.4C113.247 458.992 112.231 459.288 111.143 459.288ZM124.492 459.288C123.212 459.288 122.132 459.08 121.252 458.664C120.388 458.232 119.652 457.712 119.044 457.104L120.484 455.16C120.948 455.608 121.468 456 122.044 456.336C122.636 456.656 123.316 456.816 124.084 456.816C124.948 456.816 125.652 456.568 126.196 456.072C126.74 455.56 127.012 454.848 127.012 453.936C127.012 453.04 126.756 452.352 126.244 451.872C125.732 451.376 125.06 451.128 124.228 451.128C123.748 451.128 123.332 451.192 122.98 451.32C122.644 451.448 122.236 451.672 121.756 451.992L120.34 451.056L120.796 443.232H129.34V445.824H123.436L123.124 449.4C123.444 449.256 123.764 449.144 124.084 449.064C124.404 448.984 124.756 448.944 125.14 448.944C126.036 448.944 126.86 449.12 127.612 449.472C128.38 449.808 128.988 450.344 129.436 451.08C129.884 451.8 130.108 452.72 130.108 453.84C130.108 455.008 129.844 456 129.316 456.816C128.788 457.616 128.1 458.232 127.252 458.664C126.404 459.08 125.484 459.288 124.492 459.288ZM133.233 455.544H136.497V459H133.233V455.544ZM144.846 459.288C143.182 459.288 141.862 458.584 140.886 457.176C139.91 455.768 139.422 453.728 139.422 451.056C139.422 448.384 139.91 446.36 140.886 444.984C141.862 443.608 143.182 442.92 144.846 442.92C146.494 442.92 147.806 443.616 148.782 445.008C149.758 446.384 150.246 448.4 150.246 451.056C150.246 453.728 149.758 455.768 148.782 457.176C147.806 458.584 146.494 459.288 144.846 459.288ZM144.846 456.936C145.326 456.936 145.75 456.752 146.118 456.384C146.502 456.016 146.806 455.408 147.03 454.56C147.254 453.696 147.366 452.528 147.366 451.056C147.366 449.584 147.254 448.432 147.03 447.6C146.806 446.768 146.502 446.184 146.118 445.848C145.75 445.512 145.326 445.344 144.846 445.344C144.35 445.344 143.91 445.512 143.526 445.848C143.158 446.184 142.862 446.768 142.638 447.6C142.414 448.432 142.302 449.584 142.302 451.056C142.302 452.528 142.414 453.696 142.638 454.56C142.862 455.408 143.158 456.016 143.526 456.384C143.91 456.752 144.35 456.936 144.846 456.936ZM157.642 459.288C155.978 459.288 154.658 458.584 153.682 457.176C152.706 455.768 152.218 453.728 152.218 451.056C152.218 448.384 152.706 446.36 153.682 444.984C154.658 443.608 155.978 442.92 157.642 442.92C159.29 442.92 160.602 443.616 161.578 445.008C162.554 446.384 163.042 448.4 163.042 451.056C163.042 453.728 162.554 455.768 161.578 457.176C160.602 458.584 159.29 459.288 157.642 459.288ZM157.642 456.936C158.122 456.936 158.546 456.752 158.914 456.384C159.298 456.016 159.602 455.408 159.826 454.56C160.05 453.696 160.162 452.528 160.162 451.056C160.162 449.584 160.05 448.432 159.826 447.6C159.602 446.768 159.298 446.184 158.914 445.848C158.546 445.512 158.122 445.344 157.642 445.344C157.146 445.344 156.706 445.512 156.322 445.848C155.954 446.184 155.658 446.768 155.434 447.6C155.21 448.432 155.098 449.584 155.098 451.056C155.098 452.528 155.21 453.696 155.434 454.56C155.658 455.408 155.954 456.016 156.322 456.384C156.706 456.752 157.146 456.936 157.642 456.936Z" fill="#272320"/>
<g filter="url(#filter2_d_59_99)">
<rect x="28.25" y="483.25" width="311.5" height="32.5" rx="16.25" fill="#F9D8D8" stroke="#272320" stroke-width="0.5"/>
<path d="M130.244 506V496.304H126.948V495.152H134.884V496.304H131.604V506H130.244ZM136.688 506V497.984H138.048V506H136.688ZM137.376 496.32C137.12 496.32 136.901 496.24 136.72 496.08C136.538 495.909 136.448 495.696 136.448 495.44C136.448 495.173 136.538 494.96 136.72 494.8C136.901 494.64 137.12 494.56 137.376 494.56C137.642 494.56 137.866 494.64 138.048 494.8C138.229 494.96 138.32 495.173 138.32 495.44C138.32 495.696 138.229 495.909 138.048 496.08C137.866 496.24 137.642 496.32 137.376 496.32ZM142.19 506.192C141.678 506.192 141.31 506.043 141.086 505.744C140.862 505.435 140.75 504.987 140.75 504.4V494.224H142.11V504.512C142.11 504.715 142.148 504.864 142.222 504.96C142.297 505.045 142.382 505.088 142.478 505.088C142.521 505.088 142.558 505.088 142.59 505.088C142.633 505.077 142.697 505.067 142.782 505.056L142.958 506.064C142.862 506.096 142.75 506.123 142.622 506.144C142.505 506.176 142.361 506.192 142.19 506.192ZM145.178 506V496.688C145.178 495.877 145.364 495.232 145.738 494.752C146.122 494.272 146.714 494.032 147.514 494.032C147.759 494.032 147.994 494.059 148.218 494.112C148.452 494.165 148.66 494.229 148.842 494.304L148.554 495.328C148.266 495.189 147.962 495.12 147.642 495.12C146.884 495.12 146.506 495.643 146.506 496.688V506H145.178ZM144.074 499.072V498.048L145.226 497.984H148.218V499.072H144.074ZM152.855 506.192C152.204 506.192 151.596 506.027 151.031 505.696C150.465 505.365 150.007 504.891 149.655 504.272C149.313 503.643 149.143 502.885 149.143 502C149.143 501.104 149.313 500.341 149.655 499.712C150.007 499.083 150.465 498.603 151.031 498.272C151.596 497.941 152.204 497.776 152.855 497.776C153.516 497.776 154.129 497.941 154.695 498.272C155.26 498.603 155.713 499.083 156.055 499.712C156.407 500.341 156.583 501.104 156.583 502C156.583 502.885 156.407 503.643 156.055 504.272C155.713 504.891 155.26 505.365 154.695 505.696C154.129 506.027 153.516 506.192 152.855 506.192ZM152.855 505.12C153.324 505.12 153.74 504.992 154.103 504.736C154.465 504.48 154.748 504.123 154.951 503.664C155.153 503.205 155.255 502.672 155.255 502.064C155.255 501.072 155.031 500.288 154.583 499.712C154.135 499.136 153.559 498.848 152.855 498.848C152.396 498.848 151.985 498.981 151.623 499.248C151.271 499.504 150.988 499.867 150.775 500.336C150.572 500.795 150.471 501.333 150.471 501.952C150.471 502.933 150.695 503.707 151.143 504.272C151.591 504.837 152.161 505.12 152.855 505.12ZM149.751 506.368L149.143 505.92L155.991 497.6L156.583 498.08L149.751 506.368ZM157.856 509.584C157.61 509.584 157.392 509.563 157.2 509.52C157.008 509.477 156.837 509.429 156.688 509.376L156.976 508.352C157.082 508.384 157.2 508.411 157.328 508.432C157.445 508.464 157.573 508.48 157.712 508.48C158.117 508.48 158.384 508.341 158.512 508.064C158.64 507.787 158.704 507.403 158.704 506.912V497.984H160.048V506.912C160.048 507.733 159.882 508.384 159.552 508.864C159.221 509.344 158.656 509.584 157.856 509.584ZM159.392 496.32C159.136 496.32 158.917 496.24 158.736 496.08C158.554 495.909 158.464 495.696 158.464 495.44C158.464 495.173 158.554 494.96 158.736 494.8C158.917 494.64 159.136 494.56 159.392 494.56C159.648 494.56 159.866 494.64 160.048 494.8C160.229 494.96 160.32 495.173 160.32 495.44C160.32 495.696 160.229 495.909 160.048 496.08C159.866 496.24 159.648 496.32 159.392 496.32ZM169.635 506V496.304H166.339V495.152H174.275V496.304H170.995V506H169.635ZM176.078 506V497.984H177.438V506H176.078ZM176.766 496.32C176.51 496.32 176.292 496.24 176.11 496.08C175.929 495.909 175.838 495.696 175.838 495.44C175.838 495.173 175.929 494.96 176.11 494.8C176.292 494.64 176.51 494.56 176.766 494.56C177.033 494.56 177.257 494.64 177.438 494.8C177.62 494.96 177.71 495.173 177.71 495.44C177.71 495.696 177.62 495.909 177.438 496.08C177.257 496.24 177.033 496.32 176.766 496.32ZM181.581 506.192C181.069 506.192 180.701 506.043 180.477 505.744C180.253 505.435 180.141 504.987 180.141 504.4V494.224H181.501V504.512C181.501 504.715 181.538 504.864 181.613 504.96C181.688 505.045 181.773 505.088 181.869 505.088C181.912 505.088 181.949 505.088 181.981 505.088C182.024 505.077 182.088 505.067 182.173 505.056L182.349 506.064C182.253 506.096 182.141 506.123 182.013 506.144C181.896 506.176 181.752 506.192 181.581 506.192ZM188.941 506V495.152H190.301V500.624H190.365L194.893 495.152H196.429L193.037 499.28L196.941 506H195.437L192.173 500.352L190.301 502.56V506H188.941ZM200.712 506.192C199.869 506.192 199.25 505.931 198.856 505.408C198.461 504.875 198.264 504.096 198.264 503.072V497.984H199.608V502.896C199.608 503.643 199.725 504.187 199.96 504.528C200.205 504.869 200.594 505.04 201.128 505.04C201.544 505.04 201.912 504.933 202.232 504.72C202.552 504.496 202.904 504.149 203.288 503.68V497.984H204.632V506H203.528L203.416 504.752H203.368C202.994 505.189 202.594 505.541 202.168 505.808C201.752 506.064 201.266 506.192 200.712 506.192ZM207.328 506V497.984H208.448L208.56 499.44H208.608C208.886 498.928 209.222 498.523 209.616 498.224C210.011 497.925 210.432 497.776 210.88 497.776C211.222 497.776 211.51 497.835 211.744 497.952L211.488 499.12C211.35 499.077 211.227 499.045 211.12 499.024C211.014 499.003 210.88 498.992 210.72 498.992C210.379 498.992 210.022 499.131 209.648 499.408C209.275 499.675 208.955 500.155 208.688 500.848V506H207.328ZM214.791 506L211.895 497.984H213.271L214.807 502.544C214.924 502.939 215.047 503.339 215.175 503.744C215.303 504.139 215.431 504.528 215.559 504.912H215.623C215.74 504.528 215.858 504.139 215.975 503.744C216.103 503.339 216.231 502.939 216.359 502.544L217.879 497.984H219.207L216.359 506H214.791Z" fill="#272320"/>
<path d="M227.092 494.5H239.77C240.918 494.5 241.748 495.558 241.433 496.623L240.054 501.29C239.842 502.007 239.163 502.5 238.392 502.5H230.76C229.988 502.5 229.308 502.006 229.097 501.29L227.092 494.5ZM227.092 494.5L226.5 492.5M237.75 507.5C238.082 507.5 238.4 507.368 238.634 507.134C238.868 506.899 239 506.582 239 506.25C239 505.918 238.868 505.601 238.634 505.366C238.4 505.132 238.082 505 237.75 505C237.419 505 237.101 505.132 236.866 505.366C236.632 505.601 236.5 505.918 236.5 506.25C236.5 506.582 236.632 506.899 236.866 507.134C237.101 507.368 237.419 507.5 237.75 507.5ZM231.083 507.5C231.415 507.5 231.733 507.368 231.967 507.134C232.202 506.899 232.333 506.582 232.333 506.25C232.333 505.918 232.202 505.601 231.967 505.366C231.733 505.132 231.415 505 231.083 505C230.752 505 230.434 505.132 230.199 505.366C229.965 505.601 229.833 505.918 229.833 506.25C229.833 506.582 229.965 506.899 230.199 507.134C230.434 507.368 230.752 507.5 231.083 507.5Z" stroke="#272320" stroke-width="1.2" stroke-linecap="round" stroke-linejoin="round"/>
</g>
</g>
<defs>
<filter id="filter0_d_59_99" x="0" y="0" width="369" height="572" filterUnits="userSpaceOnUse" color-interpolation-filters="sRGB">
<feFlood flood-opacity="0" result="BackgroundImageFix"/>
<feColorMatrix in="SourceAlpha" type="matrix" values="0 0 0 0 0 0 0 0 0 0 0 0 0 0 0 0 0 0 127 0" result="hardAlpha"/>
<feOffset dy="4"/>
<feGaussianBlur stdDeviation="2"/>
<feComposite in2="hardAlpha" operator="out"/>
<feColorMatrix type="matrix" values="0 0 0 0 0 0 0 0 0 0 0 0 0 0 0 0 0 0 0.25 0"/>
<feBlend mode="normal" in2="BackgroundImageFix" result="effect1_dropShadow_59_99"/>
<feBlend mode="normal" in="SourceGraphic" in2="effect1_dropShadow_59_99" result="shape"/>
</filter>
<filter id="filter1_d_59_99" x="24" y="27" width="320" height="330" filterUnits="userSpaceOnUse" color-interpolation-filters="sRGB">
<feFlood flood-opacity="0" result="BackgroundImageFix"/>
<feColorMatrix in="SourceAlpha" type="matrix" values="0 0 0 0 0 0 0 0 0 0 0 0 0 0 0 0 0 0 127 0" result="hardAlpha"/>
<feOffset dy="4"/>
<feGaussianBlur stdDeviation="2"/>
<feComposite in2="hardAlpha" operator="out"/>
<feColorMatrix type="matrix" values="0 0 0 0 0 0 0 0 0 0 0 0 0 0 0 0 0 0 0.25 0"/>
<feBlend mode="normal" in2="BackgroundImageFix" result="effect1_dropShadow_59_99"/>
<feBlend mode="normal" in="SourceGraphic" in2="effect1_dropShadow_59_99" result="shape"/>
</filter>
<filter id="filter2_d_59_99" x="24" y="483" width="320" height="41" filterUnits="userSpaceOnUse" color-interpolation-filters="sRGB">
<feFlood flood-opacity="0" result="BackgroundImageFix"/>
<feColorMatrix in="SourceAlpha" type="matrix" values="0 0 0 0 0 0 0 0 0 0 0 0 0 0 0 0 0 0 127 0" result="hardAlpha"/>
<feOffset dy="4"/>
<feGaussianBlur stdDeviation="2"/>
<feComposite in2="hardAlpha" operator="out"/>
<feColorMatrix type="matrix" values="0 0 0 0 0 0 0 0 0 0 0 0 0 0 0 0 0 0 0.25 0"/>
<feBlend mode="normal" in2="BackgroundImageFix" result="effect1_dropShadow_59_99"/>
<feBlend mode="normal" in="SourceGraphic" in2="effect1_dropShadow_59_99" result="shape"/>
</filter>
</defs>
</svg>
