<svg width="369" height="572" viewBox="0 0 369 572" fill="none" xmlns="http://www.w3.org/2000/svg">
<g filter="url(#filter0_d_59_156)">
<rect x="4" width="361" height="564" rx="30" fill="#F9F6F5" shape-rendering="crispEdges"/>
<g filter="url(#filter1_d_59_156)">
<rect x="28" y="27" width="312" height="322" rx="30" fill="#DCD2C9" fill-opacity="0.4" shape-rendering="crispEdges"/>
</g>
<path d="M30.576 387V368.016H32.956V384.984H41.272V387H30.576ZM51.3513 387.336C50.0633 387.336 48.906 387.084 47.8793 386.58C46.8527 386.057 46.0407 385.208 45.4433 384.032C44.846 382.837 44.5473 381.223 44.5473 379.188V368.016H46.8993V379.244C46.8993 380.775 47.0953 381.979 47.4873 382.856C47.898 383.733 48.43 384.359 49.0833 384.732C49.7553 385.087 50.5113 385.264 51.3513 385.264C52.1913 385.264 52.9473 385.087 53.6193 384.732C54.31 384.359 54.8513 383.733 55.2433 382.856C55.654 381.979 55.8593 380.775 55.8593 379.244V368.016H58.1553V379.188C58.1553 381.223 57.8567 382.837 57.2593 384.032C56.662 385.208 55.8407 386.057 54.7953 386.58C53.7687 387.084 52.6207 387.336 51.3513 387.336ZM63.2518 387V368.016H66.1638L69.7758 378.18C70.0184 378.833 70.2518 379.496 70.4758 380.168C70.6998 380.84 70.9238 381.512 71.1478 382.184H71.2598C71.4838 381.512 71.6984 380.84 71.9038 380.168C72.1278 379.496 72.3518 378.833 72.5758 378.18L76.1878 368.016H79.0718V387H76.8598V376.5C76.8598 375.679 76.8878 374.745 76.9438 373.7C77.0184 372.655 77.0838 371.712 77.1398 370.872H77.0278L75.5438 375.212L71.9318 385.096H70.3638L66.7518 375.212L65.2398 370.872H65.1278C65.1838 371.712 65.2491 372.655 65.3238 373.7C65.3984 374.745 65.4358 375.679 65.4358 376.5V387H63.2518ZM84.2518 387V368.016H86.6318V387H84.2518ZM91.8533 387V368.016H94.3453L101.233 380L103.277 383.948H103.389C103.333 382.977 103.268 381.979 103.193 380.952C103.119 379.907 103.081 378.889 103.081 377.9V368.016H105.377V387H102.885L95.9973 375.016L93.9533 371.096H93.8133C93.8693 372.067 93.9347 373.047 94.0093 374.036C94.084 375.025 94.1213 376.015 94.1213 377.004V387H91.8533ZM121.029 387L119.209 381.204H112.321L110.445 387H108.009L114.449 368.016H117.137L123.577 387H121.029ZM112.825 379.3H118.677L117.725 376.388C117.37 375.324 117.034 374.269 116.717 373.224C116.418 372.16 116.12 371.087 115.821 370.004H115.709C115.41 371.087 115.102 372.16 114.785 373.224C114.468 374.269 114.141 375.324 113.805 376.388L112.825 379.3ZM141.072 387.336C139.504 387.336 138.104 386.935 136.872 386.132C135.659 385.329 134.707 384.191 134.016 382.716C133.325 381.241 132.98 379.487 132.98 377.452C132.98 375.436 133.325 373.7 134.016 372.244C134.707 370.769 135.659 369.64 136.872 368.856C138.104 368.072 139.504 367.68 141.072 367.68C142.677 367.68 144.087 368.072 145.3 368.856C146.513 369.64 147.465 370.769 148.156 372.244C148.847 373.7 149.192 375.436 149.192 377.452C149.192 379.487 148.847 381.241 148.156 382.716C147.465 384.191 146.513 385.329 145.3 386.132C144.087 386.935 142.677 387.336 141.072 387.336ZM141.072 385.264C142.211 385.264 143.2 384.947 144.04 384.312C144.899 383.659 145.561 382.753 146.028 381.596C146.495 380.42 146.728 379.039 146.728 377.452C146.728 375.884 146.495 374.531 146.028 373.392C145.561 372.235 144.899 371.348 144.04 370.732C143.2 370.097 142.211 369.78 141.072 369.78C139.952 369.78 138.963 370.097 138.104 370.732C137.264 371.348 136.611 372.235 136.144 373.392C135.677 374.531 135.444 375.884 135.444 377.452C135.444 379.039 135.677 380.42 136.144 381.596C136.611 382.753 137.264 383.659 138.104 384.312C138.963 384.947 139.952 385.264 141.072 385.264ZM153.043 387V372.972H155.003L155.199 374.988H155.283C155.955 374.316 156.665 373.756 157.411 373.308C158.177 372.841 159.035 372.608 159.987 372.608C161.481 372.608 162.563 373.075 163.235 374.008C163.926 374.941 164.271 376.304 164.271 378.096V387H161.947V378.404C161.947 377.097 161.733 376.145 161.303 375.548C160.893 374.951 160.211 374.652 159.259 374.652C158.55 374.652 157.906 374.839 157.327 375.212C156.749 375.567 156.114 376.108 155.423 376.836V387H153.043ZM174.532 387.336C173.281 387.336 172.143 387.047 171.116 386.468C170.108 385.889 169.305 385.049 168.708 383.948C168.111 382.847 167.812 381.531 167.812 380C167.812 378.469 168.111 377.153 168.708 376.052C169.324 374.951 170.108 374.101 171.06 373.504C172.031 372.907 173.048 372.608 174.112 372.608C175.904 372.608 177.285 373.205 178.256 374.4C179.245 375.595 179.74 377.2 179.74 379.216C179.74 379.459 179.731 379.701 179.712 379.944C179.693 380.168 179.665 380.364 179.628 380.532H170.136C170.229 382.025 170.696 383.229 171.536 384.144C172.376 385.04 173.468 385.488 174.812 385.488C175.503 385.488 176.128 385.385 176.688 385.18C177.267 384.975 177.817 384.704 178.34 384.368L179.18 385.908C178.564 386.3 177.873 386.636 177.108 386.916C176.361 387.196 175.503 387.336 174.532 387.336ZM170.108 378.852H177.64C177.64 377.433 177.332 376.351 176.716 375.604C176.119 374.857 175.269 374.484 174.168 374.484C173.179 374.484 172.292 374.867 171.508 375.632C170.724 376.397 170.257 377.471 170.108 378.852Z" fill="#272320"/>
<path d="M29.288 421V411.508H30.478V419.992H34.636V421H29.288ZM37.8137 421.168C37.235 421.168 36.7497 420.995 36.3577 420.65C35.9657 420.305 35.7697 419.815 35.7697 419.18C35.7697 418.415 36.1103 417.827 36.7917 417.416C37.4823 417.005 38.579 416.721 40.0817 416.562C40.0817 416.254 40.0397 415.965 39.9557 415.694C39.8717 415.423 39.727 415.204 39.5217 415.036C39.3163 414.859 39.0177 414.77 38.6257 414.77C38.215 414.77 37.8323 414.849 37.4777 415.008C37.123 415.167 36.8057 415.339 36.5257 415.526L36.0637 414.714C36.3903 414.509 36.7917 414.308 37.2677 414.112C37.7437 413.907 38.2617 413.804 38.8217 413.804C39.6803 413.804 40.301 414.07 40.6837 414.602C41.0663 415.125 41.2577 415.82 41.2577 416.688V421H40.2777L40.1937 420.174H40.1517C39.8157 420.445 39.4517 420.678 39.0597 420.874C38.6677 421.07 38.2523 421.168 37.8137 421.168ZM38.1497 420.23C38.495 420.23 38.817 420.151 39.1157 419.992C39.4143 419.833 39.7363 419.6 40.0817 419.292V417.332C39.2977 417.425 38.6723 417.556 38.2057 417.724C37.739 417.883 37.403 418.079 37.1977 418.312C37.0017 418.536 36.9037 418.797 36.9037 419.096C36.9037 419.497 37.025 419.787 37.2677 419.964C37.5103 420.141 37.8043 420.23 38.1497 420.23ZM44.9891 421L42.4551 413.986H43.6591L45.0031 417.976C45.1058 418.321 45.2131 418.671 45.3251 419.026C45.4371 419.371 45.5491 419.712 45.6611 420.048H45.7171C45.8198 419.712 45.9224 419.371 46.0251 419.026C46.1371 418.671 46.2491 418.321 46.3611 417.976L47.6911 413.986H48.8531L46.3611 421H44.9891ZM53.0453 421.168C52.42 421.168 51.8507 421.023 51.3373 420.734C50.8333 420.445 50.432 420.025 50.1333 419.474C49.8347 418.923 49.6853 418.265 49.6853 417.5C49.6853 416.735 49.8347 416.077 50.1333 415.526C50.4413 414.975 50.8333 414.551 51.3093 414.252C51.7947 413.953 52.3033 413.804 52.8353 413.804C53.7313 413.804 54.422 414.103 54.9073 414.7C55.402 415.297 55.6493 416.1 55.6493 417.108C55.6493 417.229 55.6447 417.351 55.6353 417.472C55.626 417.584 55.612 417.682 55.5933 417.766H50.8473C50.894 418.513 51.1273 419.115 51.5473 419.572C51.9673 420.02 52.5133 420.244 53.1853 420.244C53.5307 420.244 53.8433 420.193 54.1233 420.09C54.4127 419.987 54.688 419.852 54.9493 419.684L55.3693 420.454C55.0613 420.65 54.716 420.818 54.3333 420.958C53.96 421.098 53.5307 421.168 53.0453 421.168ZM50.8333 416.926H54.5993C54.5993 416.217 54.4453 415.675 54.1373 415.302C53.8387 414.929 53.414 414.742 52.8633 414.742C52.3687 414.742 51.9253 414.933 51.5333 415.316C51.1413 415.699 50.908 416.235 50.8333 416.926ZM57.3537 421V413.986H58.3337L58.4317 414.994H58.4737C58.8097 414.658 59.1644 414.378 59.5377 414.154C59.9204 413.921 60.3497 413.804 60.8257 413.804C61.5724 413.804 62.1137 414.037 62.4497 414.504C62.7951 414.971 62.9677 415.652 62.9677 416.548V421H61.8057V416.702C61.8057 416.049 61.6984 415.573 61.4837 415.274C61.2784 414.975 60.9377 414.826 60.4617 414.826C60.1071 414.826 59.7851 414.919 59.4957 415.106C59.2064 415.283 58.8891 415.554 58.5437 415.918V421H57.3537ZM67.6641 421.168C66.7867 421.168 66.0821 420.851 65.5501 420.216C65.0181 419.581 64.7521 418.676 64.7521 417.5C64.7521 416.744 64.8921 416.091 65.1721 415.54C65.4614 414.98 65.8394 414.551 66.3061 414.252C66.7727 413.953 67.2721 413.804 67.8041 413.804C68.2147 413.804 68.5694 413.879 68.8681 414.028C69.1667 414.168 69.4701 414.369 69.7781 414.63L69.7221 413.412V410.696H70.8981V421H69.9321L69.8341 420.174H69.7921C69.5214 420.445 69.2041 420.678 68.8401 420.874C68.4761 421.07 68.0841 421.168 67.6641 421.168ZM67.9161 420.188C68.5414 420.188 69.1434 419.866 69.7221 419.222V415.526C69.4234 415.255 69.1341 415.064 68.8541 414.952C68.5834 414.84 68.3034 414.784 68.0141 414.784C67.6314 414.784 67.2861 414.901 66.9781 415.134C66.6701 415.358 66.4227 415.675 66.2361 416.086C66.0587 416.487 65.9701 416.959 65.9701 417.5C65.9701 418.34 66.1381 418.998 66.4741 419.474C66.8194 419.95 67.3001 420.188 67.9161 420.188ZM76.1098 421.168C75.4845 421.168 74.9151 421.023 74.4018 420.734C73.8978 420.445 73.4965 420.025 73.1978 419.474C72.8991 418.923 72.7498 418.265 72.7498 417.5C72.7498 416.735 72.8991 416.077 73.1978 415.526C73.5058 414.975 73.8978 414.551 74.3738 414.252C74.8591 413.953 75.3678 413.804 75.8998 413.804C76.7958 413.804 77.4865 414.103 77.9718 414.7C78.4665 415.297 78.7138 416.1 78.7138 417.108C78.7138 417.229 78.7091 417.351 78.6998 417.472C78.6905 417.584 78.6765 417.682 78.6578 417.766H73.9118C73.9585 418.513 74.1918 419.115 74.6118 419.572C75.0318 420.02 75.5778 420.244 76.2498 420.244C76.5951 420.244 76.9078 420.193 77.1878 420.09C77.4771 419.987 77.7525 419.852 78.0138 419.684L78.4338 420.454C78.1258 420.65 77.7805 420.818 77.3978 420.958C77.0245 421.098 76.5951 421.168 76.1098 421.168ZM73.8978 416.926H77.6638C77.6638 416.217 77.5098 415.675 77.2018 415.302C76.9031 414.929 76.4785 414.742 75.9278 414.742C75.4331 414.742 74.9898 414.933 74.5978 415.316C74.2058 415.699 73.9725 416.235 73.8978 416.926ZM80.4182 421V413.986H81.3982L81.4962 415.26H81.5382C81.7809 414.812 82.0749 414.457 82.4202 414.196C82.7655 413.935 83.1342 413.804 83.5262 413.804C83.8249 413.804 84.0769 413.855 84.2822 413.958L84.0582 414.98C83.9369 414.943 83.8295 414.915 83.7362 414.896C83.6429 414.877 83.5262 414.868 83.3862 414.868C83.0875 414.868 82.7749 414.989 82.4482 415.232C82.1215 415.465 81.8415 415.885 81.6082 416.492V421H80.4182ZM89.4579 421V411.508H90.9139L92.7199 416.59C92.8413 416.917 92.9579 417.248 93.0699 417.584C93.1819 417.92 93.2939 418.256 93.4059 418.592H93.4619C93.5739 418.256 93.6813 417.92 93.7839 417.584C93.8959 417.248 94.0079 416.917 94.1199 416.59L95.9259 411.508H97.3679V421H96.2619V415.75C96.2619 415.339 96.2759 414.873 96.3039 414.35C96.3413 413.827 96.3739 413.356 96.4019 412.936H96.3459L95.6039 415.106L93.7979 420.048H93.0139L91.2079 415.106L90.4519 412.936H90.3959C90.4239 413.356 90.4566 413.827 90.4939 414.35C90.5313 414.873 90.5499 415.339 90.5499 415.75V421H89.4579ZM99.8459 421V413.986H101.036V421H99.8459ZM100.448 412.53C100.224 412.53 100.033 412.46 99.8739 412.32C99.7153 412.171 99.6359 411.984 99.6359 411.76C99.6359 411.527 99.7153 411.34 99.8739 411.2C100.033 411.06 100.224 410.99 100.448 410.99C100.681 410.99 100.877 411.06 101.036 411.2C101.195 411.34 101.274 411.527 101.274 411.76C101.274 411.984 101.195 412.171 101.036 412.32C100.877 412.46 100.681 412.53 100.448 412.53ZM105.249 421.168C104.745 421.168 104.264 421.079 103.807 420.902C103.349 420.715 102.953 420.487 102.617 420.216L103.205 419.432C103.513 419.675 103.83 419.875 104.157 420.034C104.483 420.193 104.861 420.272 105.291 420.272C105.748 420.272 106.093 420.165 106.327 419.95C106.56 419.726 106.677 419.465 106.677 419.166C106.677 418.923 106.597 418.723 106.439 418.564C106.28 418.396 106.075 418.256 105.823 418.144C105.571 418.023 105.319 417.915 105.067 417.822C104.74 417.701 104.413 417.561 104.087 417.402C103.76 417.234 103.489 417.024 103.275 416.772C103.069 416.52 102.967 416.198 102.967 415.806C102.967 415.237 103.177 414.761 103.597 414.378C104.026 413.995 104.623 413.804 105.389 413.804C105.827 413.804 106.233 413.883 106.607 414.042C106.98 414.191 107.297 414.378 107.559 414.602L106.999 415.344C106.756 415.167 106.504 415.022 106.243 414.91C105.991 414.789 105.711 414.728 105.403 414.728C104.955 414.728 104.623 414.831 104.409 415.036C104.203 415.232 104.101 415.465 104.101 415.736C104.101 415.96 104.175 416.147 104.325 416.296C104.474 416.436 104.665 416.557 104.899 416.66C105.141 416.763 105.398 416.861 105.669 416.954C106.005 417.085 106.336 417.229 106.663 417.388C106.989 417.547 107.26 417.761 107.475 418.032C107.689 418.293 107.797 418.648 107.797 419.096C107.797 419.665 107.577 420.155 107.139 420.566C106.709 420.967 106.079 421.168 105.249 421.168ZM111.656 421.168C110.909 421.168 110.386 420.958 110.088 420.538C109.798 420.109 109.654 419.544 109.654 418.844V414.938H108.604V414.042L109.71 413.986L109.85 412.012H110.83V413.986H112.734V414.938H110.83V418.858C110.83 419.287 110.909 419.623 111.068 419.866C111.236 420.099 111.52 420.216 111.922 420.216C112.052 420.216 112.188 420.197 112.328 420.16C112.477 420.123 112.612 420.081 112.734 420.034L112.944 420.916C112.748 420.981 112.538 421.037 112.314 421.084C112.09 421.14 111.87 421.168 111.656 421.168Z" fill="black"/>
<path d="M30.016 459V442.8H34.384C36.864 442.8 38.808 443.464 40.216 444.792C41.64 446.12 42.352 448.144 42.352 450.864C42.352 453.568 41.648 455.6 40.24 456.96C38.848 458.32 36.952 459 34.552 459H30.016ZM33.088 456.528H34.192C35.76 456.528 36.984 456.08 37.864 455.184C38.76 454.272 39.208 452.832 39.208 450.864C39.208 448.88 38.76 447.456 37.864 446.592C36.984 445.728 35.76 445.296 34.192 445.296H33.088V456.528ZM45.5785 459V442.8H48.6505V449.976H48.7225L54.2665 442.8H57.6745L52.7065 449.184L58.5385 459H55.1305L50.8825 451.584L48.6505 454.392V459H45.5785ZM60.4848 459V442.8H63.5568V449.976H63.6288L69.1728 442.8H72.5807L67.6128 449.184L73.4448 459H70.0368L65.7888 451.584L63.5568 454.392V459H60.4848ZM81.9016 459V456.528H85.4056V446.472H82.4776V444.576C83.2776 444.432 83.9656 444.256 84.5416 444.048C85.1336 443.824 85.6776 443.552 86.1736 443.232H88.4536V456.528H91.5256V459H81.9016ZM98.3464 459.288C97.3704 459.288 96.5224 459.112 95.8024 458.76C95.0984 458.408 94.5064 457.984 94.0264 457.488L95.6824 455.64C95.9704 455.976 96.3384 456.256 96.7864 456.48C97.2344 456.704 97.6904 456.816 98.1544 456.816C98.8264 456.816 99.4344 456.624 99.9784 456.24C100.538 455.856 100.978 455.216 101.298 454.32C101.618 453.424 101.778 452.208 101.778 450.672C101.778 448.72 101.498 447.336 100.938 446.52C100.394 445.688 99.6984 445.272 98.8504 445.272C98.2264 445.272 97.6904 445.512 97.2424 445.992C96.8104 446.472 96.5944 447.192 96.5944 448.152C96.5944 449.048 96.8104 449.72 97.2424 450.168C97.6744 450.6 98.2504 450.816 98.9704 450.816C99.4344 450.816 99.9064 450.672 100.386 450.384C100.882 450.096 101.346 449.608 101.778 448.92L101.898 451.032C101.466 451.656 100.914 452.144 100.242 452.496C99.5864 452.848 98.9784 453.024 98.4184 453.024C97.0584 453.024 95.9464 452.624 95.0824 451.824C94.2184 451.024 93.7864 449.8 93.7864 448.152C93.7864 447.08 94.0104 446.16 94.4584 445.392C94.9224 444.608 95.5304 444 96.2824 443.568C97.0504 443.136 97.8904 442.92 98.8024 442.92C99.8424 442.92 100.794 443.2 101.658 443.76C102.538 444.304 103.25 445.144 103.794 446.28C104.338 447.416 104.61 448.88 104.61 450.672C104.61 452.704 104.314 454.352 103.722 455.616C103.13 456.88 102.354 457.808 101.394 458.4C100.45 458.992 99.4344 459.288 98.3464 459.288ZM111.143 459.288C110.167 459.288 109.319 459.112 108.599 458.76C107.895 458.408 107.303 457.984 106.823 457.488L108.479 455.64C108.767 455.976 109.135 456.256 109.583 456.48C110.031 456.704 110.487 456.816 110.951 456.816C111.623 456.816 112.231 456.624 112.775 456.24C113.335 455.856 113.775 455.216 114.095 454.32C114.415 453.424 114.575 452.208 114.575 450.672C114.575 448.72 114.295 447.336 113.735 446.52C113.191 445.688 112.495 445.272 111.647 445.272C111.023 445.272 110.487 445.512 110.039 445.992C109.607 446.472 109.391 447.192 109.391 448.152C109.391 449.048 109.607 449.72 110.039 450.168C110.471 450.6 111.047 450.816 111.767 450.816C112.231 450.816 112.703 450.672 113.183 450.384C113.679 450.096 114.143 449.608 114.575 448.92L114.695 451.032C114.263 451.656 113.711 452.144 113.039 452.496C112.383 452.848 111.775 453.024 111.215 453.024C109.855 453.024 108.743 452.624 107.879 451.824C107.015 451.024 106.583 449.8 106.583 448.152C106.583 447.08 106.807 446.16 107.255 445.392C107.719 444.608 108.327 444 109.079 443.568C109.847 443.136 110.687 442.92 111.599 442.92C112.639 442.92 113.591 443.2 114.455 443.76C115.335 444.304 116.047 445.144 116.591 446.28C117.135 447.416 117.407 448.88 117.407 450.672C117.407 452.704 117.111 454.352 116.519 455.616C115.927 456.88 115.151 457.808 114.191 458.4C113.247 458.992 112.231 459.288 111.143 459.288ZM124.492 459.288C123.212 459.288 122.132 459.08 121.252 458.664C120.388 458.232 119.652 457.712 119.044 457.104L120.484 455.16C120.948 455.608 121.468 456 122.044 456.336C122.636 456.656 123.316 456.816 124.084 456.816C124.948 456.816 125.652 456.568 126.196 456.072C126.74 455.56 127.012 454.848 127.012 453.936C127.012 453.04 126.756 452.352 126.244 451.872C125.732 451.376 125.06 451.128 124.228 451.128C123.748 451.128 123.332 451.192 122.98 451.32C122.644 451.448 122.236 451.672 121.756 451.992L120.34 451.056L120.796 443.232H129.34V445.824H123.436L123.124 449.4C123.444 449.256 123.764 449.144 124.084 449.064C124.404 448.984 124.756 448.944 125.14 448.944C126.036 448.944 126.86 449.12 127.612 449.472C128.38 449.808 128.988 450.344 129.436 451.08C129.884 451.8 130.108 452.72 130.108 453.84C130.108 455.008 129.844 456 129.316 456.816C128.788 457.616 128.1 458.232 127.252 458.664C126.404 459.08 125.484 459.288 124.492 459.288ZM133.233 455.544H136.497V459H133.233V455.544ZM144.846 459.288C143.182 459.288 141.862 458.584 140.886 457.176C139.91 455.768 139.422 453.728 139.422 451.056C139.422 448.384 139.91 446.36 140.886 444.984C141.862 443.608 143.182 442.92 144.846 442.92C146.494 442.92 147.806 443.616 148.782 445.008C149.758 446.384 150.246 448.4 150.246 451.056C150.246 453.728 149.758 455.768 148.782 457.176C147.806 458.584 146.494 459.288 144.846 459.288ZM144.846 456.936C145.326 456.936 145.75 456.752 146.118 456.384C146.502 456.016 146.806 455.408 147.03 454.56C147.254 453.696 147.366 452.528 147.366 451.056C147.366 449.584 147.254 448.432 147.03 447.6C146.806 446.768 146.502 446.184 146.118 445.848C145.75 445.512 145.326 445.344 144.846 445.344C144.35 445.344 143.91 445.512 143.526 445.848C143.158 446.184 142.862 446.768 142.638 447.6C142.414 448.432 142.302 449.584 142.302 451.056C142.302 452.528 142.414 453.696 142.638 454.56C142.862 455.408 143.158 456.016 143.526 456.384C143.91 456.752 144.35 456.936 144.846 456.936ZM157.642 459.288C155.978 459.288 154.658 458.584 153.682 457.176C152.706 455.768 152.218 453.728 152.218 451.056C152.218 448.384 152.706 446.36 153.682 444.984C154.658 443.608 155.978 442.92 157.642 442.92C159.29 442.92 160.602 443.616 161.578 445.008C162.554 446.384 163.042 448.4 163.042 451.056C163.042 453.728 162.554 455.768 161.578 457.176C160.602 458.584 159.29 459.288 157.642 459.288ZM157.642 456.936C158.122 456.936 158.546 456.752 158.914 456.384C159.298 456.016 159.602 455.408 159.826 454.56C160.05 453.696 160.162 452.528 160.162 451.056C160.162 449.584 160.05 448.432 159.826 447.6C159.602 446.768 159.298 446.184 158.914 445.848C158.546 445.512 158.122 445.344 157.642 445.344C157.146 445.344 156.706 445.512 156.322 445.848C155.954 446.184 155.658 446.768 155.434 447.6C155.21 448.432 155.098 449.584 155.098 451.056C155.098 452.528 155.21 453.696 155.434 454.56C155.658 455.408 155.954 456.016 156.322 456.384C156.706 456.752 157.146 456.936 157.642 456.936Z" fill="#272320"/>
<g filter="url(#filter2_d_59_156)">
<rect x="28.25" y="483.25" width="311.5" height="32.5" rx="16.25" fill="#F9D8D8" stroke="#272320" stroke-width="0.5"/>
<path d="M130.244 506V496.304H126.948V495.152H134.884V496.304H131.604V506H130.244ZM136.688 506V497.984H138.048V506H136.688ZM137.376 496.32C137.12 496.32 136.901 496.24 136.72 496.08C136.538 495.909 136.448 495.696 136.448 495.44C136.448 495.173 136.538 494.96 136.72 494.8C136.901 494.64 137.12 494.56 137.376 494.56C137.642 494.56 137.866 494.64 138.048 494.8C138.229 494.96 138.32 495.173 138.32 495.44C138.32 495.696 138.229 495.909 138.048 496.08C137.866 496.24 137.642 496.32 137.376 496.32ZM142.19 506.192C141.678 506.192 141.31 506.043 141.086 505.744C140.862 505.435 140.75 504.987 140.75 504.4V494.224H142.11V504.512C142.11 504.715 142.148 504.864 142.222 504.96C142.297 505.045 142.382 505.088 142.478 505.088C142.521 505.088 142.558 505.088 142.59 505.088C142.633 505.077 142.697 505.067 142.782 505.056L142.958 506.064C142.862 506.096 142.75 506.123 142.622 506.144C142.505 506.176 142.361 506.192 142.19 506.192ZM145.178 506V496.688C145.178 495.877 145.364 495.232 145.738 494.752C146.122 494.272 146.714 494.032 147.514 494.032C147.759 494.032 147.994 494.059 148.218 494.112C148.452 494.165 148.66 494.229 148.842 494.304L148.554 495.328C148.266 495.189 147.962 495.12 147.642 495.12C146.884 495.12 146.506 495.643 146.506 496.688V506H145.178ZM144.074 499.072V498.048L145.226 497.984H148.218V499.072H144.074ZM152.855 506.192C152.204 506.192 151.596 506.027 151.031 505.696C150.465 505.365 150.007 504.891 149.655 504.272C149.313 503.643 149.143 502.885 149.143 502C149.143 501.104 149.313 500.341 149.655 499.712C150.007 499.083 150.465 498.603 151.031 498.272C151.596 497.941 152.204 497.776 152.855 497.776C153.516 497.776 154.129 497.941 154.695 498.272C155.26 498.603 155.713 499.083 156.055 499.712C156.407 500.341 156.583 501.104 156.583 502C156.583 502.885 156.407 503.643 156.055 504.272C155.713 504.891 155.26 505.365 154.695 505.696C154.129 506.027 153.516 506.192 152.855 506.192ZM152.855 505.12C153.324 505.12 153.74 504.992 154.103 504.736C154.465 504.48 154.748 504.123 154.951 503.664C155.153 503.205 155.255 502.672 155.255 502.064C155.255 501.072 155.031 500.288 154.583 499.712C154.135 499.136 153.559 498.848 152.855 498.848C152.396 498.848 151.985 498.981 151.623 499.248C151.271 499.504 150.988 499.867 150.775 500.336C150.572 500.795 150.471 501.333 150.471 501.952C150.471 502.933 150.695 503.707 151.143 504.272C151.591 504.837 152.161 505.12 152.855 505.12ZM149.751 506.368L149.143 505.92L155.991 497.6L156.583 498.08L149.751 506.368ZM157.856 509.584C157.61 509.584 157.392 509.563 157.2 509.52C157.008 509.477 156.837 509.429 156.688 509.376L156.976 508.352C157.082 508.384 157.2 508.411 157.328 508.432C157.445 508.464 157.573 508.48 157.712 508.48C158.117 508.48 158.384 508.341 158.512 508.064C158.64 507.787 158.704 507.403 158.704 506.912V497.984H160.048V506.912C160.048 507.733 159.882 508.384 159.552 508.864C159.221 509.344 158.656 509.584 157.856 509.584ZM159.392 496.32C159.136 496.32 158.917 496.24 158.736 496.08C158.554 495.909 158.464 495.696 158.464 495.44C158.464 495.173 158.554 494.96 158.736 494.8C158.917 494.64 159.136 494.56 159.392 494.56C159.648 494.56 159.866 494.64 160.048 494.8C160.229 494.96 160.32 495.173 160.32 495.44C160.32 495.696 160.229 495.909 160.048 496.08C159.866 496.24 159.648 496.32 159.392 496.32ZM169.635 506V496.304H166.339V495.152H174.275V496.304H170.995V506H169.635ZM176.078 506V497.984H177.438V506H176.078ZM176.766 496.32C176.51 496.32 176.292 496.24 176.11 496.08C175.929 495.909 175.838 495.696 175.838 495.44C175.838 495.173 175.929 494.96 176.11 494.8C176.292 494.64 176.51 494.56 176.766 494.56C177.033 494.56 177.257 494.64 177.438 494.8C177.62 494.96 177.71 495.173 177.71 495.44C177.71 495.696 177.62 495.909 177.438 496.08C177.257 496.24 177.033 496.32 176.766 496.32ZM181.581 506.192C181.069 506.192 180.701 506.043 180.477 505.744C180.253 505.435 180.141 504.987 180.141 504.4V494.224H181.501V504.512C181.501 504.715 181.538 504.864 181.613 504.96C181.688 505.045 181.773 505.088 181.869 505.088C181.912 505.088 181.949 505.088 181.981 505.088C182.024 505.077 182.088 505.067 182.173 505.056L182.349 506.064C182.253 506.096 182.141 506.123 182.013 506.144C181.896 506.176 181.752 506.192 181.581 506.192ZM188.941 506V495.152H190.301V500.624H190.365L194.893 495.152H196.429L193.037 499.28L196.941 506H195.437L192.173 500.352L190.301 502.56V506H188.941ZM200.712 506.192C199.869 506.192 199.25 505.931 198.856 505.408C198.461 504.875 198.264 504.096 198.264 503.072V497.984H199.608V502.896C199.608 503.643 199.725 504.187 199.96 504.528C200.205 504.869 200.594 505.04 201.128 505.04C201.544 505.04 201.912 504.933 202.232 504.72C202.552 504.496 202.904 504.149 203.288 503.68V497.984H204.632V506H203.528L203.416 504.752H203.368C202.994 505.189 202.594 505.541 202.168 505.808C201.752 506.064 201.266 506.192 200.712 506.192ZM207.328 506V497.984H208.448L208.56 499.44H208.608C208.886 498.928 209.222 498.523 209.616 498.224C210.011 497.925 210.432 497.776 210.88 497.776C211.222 497.776 211.51 497.835 211.744 497.952L211.488 499.12C211.35 499.077 211.227 499.045 211.12 499.024C211.014 499.003 210.88 498.992 210.72 498.992C210.379 498.992 210.022 499.131 209.648 499.408C209.275 499.675 208.955 500.155 208.688 500.848V506H207.328ZM214.791 506L211.895 497.984H213.271L214.807 502.544C214.924 502.939 215.047 503.339 215.175 503.744C215.303 504.139 215.431 504.528 215.559 504.912H215.623C215.74 504.528 215.858 504.139 215.975 503.744C216.103 503.339 216.231 502.939 216.359 502.544L217.879 497.984H219.207L216.359 506H214.791Z" fill="#272320"/>
<path d="M227.092 494.5H239.77C240.918 494.5 241.748 495.558 241.433 496.623L240.054 501.29C239.842 502.007 239.163 502.5 238.392 502.5H230.76C229.988 502.5 229.308 502.006 229.097 501.29L227.092 494.5ZM227.092 494.5L226.5 492.5M237.75 507.5C238.082 507.5 238.4 507.368 238.634 507.134C238.868 506.899 239 506.582 239 506.25C239 505.918 238.868 505.601 238.634 505.366C238.4 505.132 238.082 505 237.75 505C237.419 505 237.101 505.132 236.866 505.366C236.632 505.601 236.5 505.918 236.5 506.25C236.5 506.582 236.632 506.899 236.866 507.134C237.101 507.368 237.419 507.5 237.75 507.5ZM231.083 507.5C231.415 507.5 231.733 507.368 231.967 507.134C232.202 506.899 232.333 506.582 232.333 506.25C232.333 505.918 232.202 505.601 231.967 505.366C231.733 505.132 231.415 505 231.083 505C230.752 505 230.434 505.132 230.199 505.366C229.965 505.601 229.833 505.918 229.833 506.25C229.833 506.582 229.965 506.899 230.199 507.134C230.434 507.368 230.752 507.5 231.083 507.5Z" stroke="#272320" stroke-width="1.2" stroke-linecap="round" stroke-linejoin="round"/>
</g>
</g>
<defs>
<filter id="filter0_d_59_156" x="0" y="0" width="369" height="572" filterUnits="userSpaceOnUse" color-interpolation-filters="sRGB">
<feFlood flood-opacity="0" result="BackgroundImageFix"/>
<feColorMatrix in="SourceAlpha" type="matrix" values="0 0 0 0 0 0 0 0 0 0 0 0 0 0 0 0 0 0 127 0" result="hardAlpha"/>
<feOffset dy="4"/>
<feGaussianBlur stdDeviation="2"/>
<feComposite in2="hardAlpha" operator="out"/>
<feColorMatrix type="matrix" values="0 0 0 0 0 0 0 0 0 0 0 0 0 0 0 0 0 0 0.25 0"/>
<feBlend mode="normal" in2="BackgroundImageFix" result="effect1_dropShadow_59_156"/>
<feBlend mode="normal" in="SourceGraphic" in2="effect1_dropShadow_59_156" result="shape"/>
</filter>
<filter id="filter1_d_59_156" x="24" y="27" width="320" height="330" filterUnits="userSpaceOnUse" color-interpolation-filters="sRGB">
<feFlood flood-opacity="0" result="BackgroundImageFix"/>
<feColorMatrix in="SourceAlpha" type="matrix" values="0 0 0 0 0 0 0 0 0 0 0 0 0 0 0 0 0 0 127 0" result="hardAlpha"/>
<feOffset dy="4"/>
<feGaussianBlur stdDeviation="2"/>
<feComposite in2="hardAlpha" operator="out"/>
<feColorMatrix type="matrix" values="0 0 0 0 0 0 0 0 0 0 0 0 0 0 0 0 0 0 0.25 0"/>
<feBlend mode="normal" in2="BackgroundImageFix" result="effect1_dropShadow_59_156"/>
<feBlend mode="normal" in="SourceGraphic" in2="effect1_dropShadow_59_156" result="shape"/>
</filter>
<filter id="filter2_d_59_156" x="24" y="483" width="320" height="41" filterUnits="userSpaceOnUse" color-interpolation-filters="sRGB">
<feFlood flood-opacity="0" result="BackgroundImageFix"/>
<feColorMatrix in="SourceAlpha" type="matrix" values="0 0 0 0 0 0 0 0 0 0 0 0 0 0 0 0 0 0 127 0" result="hardAlpha"/>
<feOffset dy="4"/>
<feGaussianBlur stdDeviation="2"/>
<feComposite in2="hardAlpha" operator="out"/>
<feColorMatrix type="matrix" values="0 0 0 0 0 0 0 0 0 0 0 0 0 0 0 0 0 0 0.25 0"/>
<feBlend mode="normal" in2="BackgroundImageFix" result="effect1_dropShadow_59_156"/>
<feBlend mode="normal" in="SourceGraphic" in2="effect1_dropShadow_59_156" result="shape"/>
</filter>
</defs>
</svg>
