<svg width="20" height="20" viewBox="0 0 20 20" fill="none" xmlns="http://www.w3.org/2000/svg">
<path d="M1.46024 3.1502H16.6742C18.0522 3.1502 19.0472 4.4202 18.6692 5.6982L17.0152 11.2982C16.7602 12.1582 15.9462 12.7502 15.0202 12.7502H5.86224C4.93524 12.7502 4.12024 12.1572 3.86624 11.2982L1.46024 3.1502ZM1.46024 3.1502L0.750244 0.750198M14.2502 18.7502C14.6481 18.7502 15.0296 18.5922 15.3109 18.3109C15.5922 18.0296 15.7502 17.648 15.7502 17.2502C15.7502 16.8524 15.5922 16.4708 15.3109 16.1895C15.0296 15.9082 14.6481 15.7502 14.2502 15.7502C13.8524 15.7502 13.4709 15.9082 13.1896 16.1895C12.9083 16.4708 12.7502 16.8524 12.7502 17.2502C12.7502 17.648 12.9083 18.0296 13.1896 18.3109C13.4709 18.5922 13.8524 18.7502 14.2502 18.7502ZM6.25024 18.7502C6.64807 18.7502 7.0296 18.5922 7.3109 18.3109C7.59221 18.0296 7.75024 17.648 7.75024 17.2502C7.75024 16.8524 7.59221 16.4708 7.3109 16.1895C7.0296 15.9082 6.64807 15.7502 6.25024 15.7502C5.85242 15.7502 5.47089 15.9082 5.18958 16.1895C4.90828 16.4708 4.75024 16.8524 4.75024 17.2502C4.75024 17.648 4.90828 18.0296 5.18958 18.3109C5.47089 18.5922 5.85242 18.7502 6.25024 18.7502Z" stroke="#272320" stroke-width="1.5" stroke-linecap="round" stroke-linejoin="round"/>
</svg>
