<svg width="58" height="58" viewBox="0 0 58 58" fill="none" xmlns="http://www.w3.org/2000/svg">
<g filter="url(#filter0_d_220_575)">
<circle cx="29" cy="25" r="25" fill="#F9D8D8"/>
</g>
<path d="M29 29C30.0609 29 31.0783 28.5786 31.8284 27.8284C32.5786 27.0783 33 26.0609 33 25C33 23.9391 32.5786 22.9217 31.8284 22.1716C31.0783 21.4214 30.0609 21 29 21C27.9391 21 26.9217 21.4214 26.1716 22.1716C25.4214 22.9217 25 23.9391 25 25C25 26.0609 25.4214 27.0783 26.1716 27.8284C26.9217 28.5786 27.9391 29 29 29Z" stroke="black" stroke-width="1.5" stroke-linecap="round" stroke-linejoin="round"/>
<path d="M20 29V21C20 19.6739 20.5268 18.4021 21.4645 17.4645C22.4021 16.5268 23.6739 16 25 16H33C34.3261 16 35.5979 16.5268 36.5355 17.4645C37.4732 18.4021 38 19.6739 38 21V29C38 30.3261 37.4732 31.5979 36.5355 32.5355C35.5979 33.4732 34.3261 34 33 34H25C23.6739 34 22.4021 33.4732 21.4645 32.5355C20.5268 31.5979 20 30.3261 20 29Z" stroke="black" stroke-width="1.5"/>
<path d="M34.5 19.51L34.51 19.499" stroke="black" stroke-width="1.5" stroke-linecap="round" stroke-linejoin="round"/>
<defs>
<filter id="filter0_d_220_575" x="0" y="0" width="58" height="58" filterUnits="userSpaceOnUse" color-interpolation-filters="sRGB">
<feFlood flood-opacity="0" result="BackgroundImageFix"/>
<feColorMatrix in="SourceAlpha" type="matrix" values="0 0 0 0 0 0 0 0 0 0 0 0 0 0 0 0 0 0 127 0" result="hardAlpha"/>
<feOffset dy="4"/>
<feGaussianBlur stdDeviation="2"/>
<feComposite in2="hardAlpha" operator="out"/>
<feColorMatrix type="matrix" values="0 0 0 0 0 0 0 0 0 0 0 0 0 0 0 0 0 0 0.25 0"/>
<feBlend mode="normal" in2="BackgroundImageFix" result="effect1_dropShadow_220_575"/>
<feBlend mode="normal" in="SourceGraphic" in2="effect1_dropShadow_220_575" result="shape"/>
</filter>
</defs>
</svg>
