<svg width="252" height="46" viewBox="0 0 252 46" fill="none" xmlns="http://www.w3.org/2000/svg">
<path d="M6.67572e-06 44.8V-1.52588e-05H5.69601V39.552H36.032V44.8H6.67572e-06ZM37.809 -1.52588e-05H43.537V36.48C43.537 37.568 43.793 38.368 44.305 38.88C44.8383 39.3707 45.617 39.616 46.641 39.616H69.425C70.4703 39.616 71.249 39.3707 71.761 38.88C72.2943 38.368 72.561 37.568 72.561 36.48V-1.52588e-05H78.257V35.84C78.257 39.4027 77.3503 41.8347 75.537 43.136C73.7237 44.4373 71.1743 45.088 67.889 45.088H48.145C46.545 45.088 45.0943 44.9387 43.793 44.64C42.513 44.3413 41.425 43.84 40.529 43.136C39.6543 42.4107 38.9823 41.4613 38.513 40.288C38.0437 39.0933 37.809 37.6107 37.809 35.84V-1.52588e-05ZM86.325 44.8V-1.52588e-05H91.381L110.421 28.064L129.237 -1.52588e-05H134.293V44.8H128.597V9.69599L110.005 37.44L91.445 10.08V44.8H86.325ZM142.8 44.8V-1.52588e-05H148.496V44.8H142.8ZM156.963 44.8V-1.52588e-05H161.411L194.915 35.808V-1.52588e-05H200.163V44.8H195.683L162.211 9.08799V44.8H156.963ZM201.169 44.8L224.241 -1.52588e-05H228.593L251.857 44.8H245.137L239.377 33.6H213.201L207.441 44.8H201.169ZM215.857 28.416H236.721L226.289 8.25599L215.857 28.416Z" fill="#272320"/>
</svg>
