<svg width="78" height="78" viewBox="0 0 78 78" fill="none" xmlns="http://www.w3.org/2000/svg">
<g filter="url(#filter0_d_163_334)">
<circle cx="39" cy="35" r="35" fill="#F9D8D8"/>
</g>
<path d="M28 43.25C28 41.7913 28.5795 40.3924 29.6109 39.3609C30.6424 38.3295 32.0413 37.75 33.5 37.75H44.5C45.9587 37.75 47.3576 38.3295 48.3891 39.3609C49.4205 40.3924 50 41.7913 50 43.25C50 43.9793 49.7103 44.6788 49.1945 45.1945C48.6788 45.7103 47.9793 46 47.25 46H30.75C30.0207 46 29.3212 45.7103 28.8055 45.1945C28.2897 44.6788 28 43.9793 28 43.25Z" stroke="#272320" stroke-width="1.5" stroke-linejoin="round"/>
<path d="M39 32.25C41.2782 32.25 43.125 30.4032 43.125 28.125C43.125 25.8468 41.2782 24 39 24C36.7218 24 34.875 25.8468 34.875 28.125C34.875 30.4032 36.7218 32.25 39 32.25Z" stroke="#272320" stroke-width="1.5"/>
<defs>
<filter id="filter0_d_163_334" x="0" y="0" width="78" height="78" filterUnits="userSpaceOnUse" color-interpolation-filters="sRGB">
<feFlood flood-opacity="0" result="BackgroundImageFix"/>
<feColorMatrix in="SourceAlpha" type="matrix" values="0 0 0 0 0 0 0 0 0 0 0 0 0 0 0 0 0 0 127 0" result="hardAlpha"/>
<feOffset dy="4"/>
<feGaussianBlur stdDeviation="2"/>
<feComposite in2="hardAlpha" operator="out"/>
<feColorMatrix type="matrix" values="0 0 0 0 0 0 0 0 0 0 0 0 0 0 0 0 0 0 0.25 0"/>
<feBlend mode="normal" in2="BackgroundImageFix" result="effect1_dropShadow_163_334"/>
<feBlend mode="normal" in="SourceGraphic" in2="effect1_dropShadow_163_334" result="shape"/>
</filter>
</defs>
</svg>
