<svg width="78" height="78" viewBox="0 0 78 78" fill="none" xmlns="http://www.w3.org/2000/svg">
<g filter="url(#filter0_d_171_359)">
<rect x="4" y="2" width="70" height="70" rx="35" fill="#F9D8D8" shape-rendering="crispEdges"/>
<path d="M47.333 42.8335C46.891 42.8335 46.4671 42.9872 46.1545 43.2607C45.842 43.5342 45.6664 43.9051 45.6664 44.2919C45.6664 44.6787 45.842 45.0496 46.1545 45.3231C46.4671 45.5966 46.891 45.7503 47.333 45.7503H53.9994C54.4415 45.7503 54.8654 45.5966 55.1779 45.3231C55.4905 45.0496 55.6661 44.6787 55.6661 44.2919C55.6661 43.9051 55.4905 43.5342 55.1779 43.2607C54.8654 42.9872 54.4415 42.8335 53.9994 42.8335H47.333ZM15.6675 29.7081C15.6675 27.7742 16.5454 25.9195 18.1082 24.552C19.6709 23.1845 21.7905 22.4163 24.0005 22.4163H53.9994C56.2095 22.4163 58.329 23.1845 59.8918 24.552C61.4545 25.9195 62.3325 27.7742 62.3325 29.7081V44.2919C62.3325 46.2258 61.4545 48.0805 59.8918 49.448C58.329 50.8155 56.2095 51.5838 53.9994 51.5838H24.0005C21.7905 51.5838 19.6709 50.8155 18.1082 49.448C16.5454 48.0805 15.6675 46.2258 15.6675 44.2919V29.7081ZM58.9993 31.1665V29.7081C58.9993 28.5478 58.4725 27.4349 57.5349 26.6145C56.5972 25.794 55.3255 25.333 53.9994 25.333H24.0005C22.6745 25.333 21.4028 25.794 20.4651 26.6145C19.5275 27.4349 19.0007 28.5478 19.0007 29.7081V31.1665H58.9993ZM19.0007 34.0833V44.2919C19.0007 45.4522 19.5275 46.5651 20.4651 47.3856C21.4028 48.2061 22.6745 48.667 24.0005 48.667H53.9994C55.3255 48.667 56.5972 48.2061 57.5349 47.3856C58.4725 46.5651 58.9993 45.4522 58.9993 44.2919V34.0833H19.0007Z" fill="#272320"/>
</g>
<defs>
<filter id="filter0_d_171_359" x="0" y="0" width="78" height="78" filterUnits="userSpaceOnUse" color-interpolation-filters="sRGB">
<feFlood flood-opacity="0" result="BackgroundImageFix"/>
<feColorMatrix in="SourceAlpha" type="matrix" values="0 0 0 0 0 0 0 0 0 0 0 0 0 0 0 0 0 0 127 0" result="hardAlpha"/>
<feOffset dy="2"/>
<feGaussianBlur stdDeviation="2"/>
<feComposite in2="hardAlpha" operator="out"/>
<feColorMatrix type="matrix" values="0 0 0 0 0 0 0 0 0 0 0 0 0 0 0 0 0 0 0.25 0"/>
<feBlend mode="normal" in2="BackgroundImageFix" result="effect1_dropShadow_171_359"/>
<feBlend mode="normal" in="SourceGraphic" in2="effect1_dropShadow_171_359" result="shape"/>
</filter>
</defs>
</svg>
